solid OpenSCAD_Model
  facet normal -1 0 0
    outer loop
      vertex 13.25 22 4.5
      vertex 13.25 48.5 6
      vertex 13.25 48.5 4.5
    endloop
  endfacet
  facet normal -1 -0 0
    outer loop
      vertex 13.25 48.5 6
      vertex 13.25 22 4.5
      vertex 13.25 22 6
    endloop
  endfacet
  facet normal -0 0 1
    outer loop
      vertex 13.25 48.5 6
      vertex 17.25 22 6
      vertex 17.25 48.5 6
    endloop
  endfacet
  facet normal 0 0 1
    outer loop
      vertex 17.25 22 6
      vertex 13.25 48.5 6
      vertex 13.25 22 6
    endloop
  endfacet
  facet normal 1 -0 0
    outer loop
      vertex 17.25 22 6
      vertex 17.25 48.5 3
      vertex 17.25 48.5 6
    endloop
  endfacet
  facet normal 1 0 0
    outer loop
      vertex 17.25 48.5 3
      vertex 17.25 22 6
      vertex 17.25 22 3
    endloop
  endfacet
  facet normal 0 1 -0
    outer loop
      vertex -10.5 48.5 3
      vertex -17.25 48.5 4.5
      vertex -10.5 48.5 4.5
    endloop
  endfacet
  facet normal 0 1 0
    outer loop
      vertex -17.25 48.5 4.5
      vertex -10.5 48.5 3
      vertex -17.25 48.5 3
    endloop
  endfacet
  facet normal 0 1 0
    outer loop
      vertex 17.25 48.5 6
      vertex 13.25 48.5 4.5
      vertex 13.25 48.5 6
    endloop
  endfacet
  facet normal 0 1 -0
    outer loop
      vertex 17.25 48.5 3
      vertex 13.25 48.5 4.5
      vertex 17.25 48.5 6
    endloop
  endfacet
  facet normal 0 1 0
    outer loop
      vertex 12.5 48.5 3
      vertex 13.25 48.5 4.5
      vertex 17.25 48.5 3
    endloop
  endfacet
  facet normal 0 1 0
    outer loop
      vertex 13.25 48.5 4.5
      vertex 12.5 48.5 3
      vertex 12.5 48.5 4.5
    endloop
  endfacet
  facet normal 0 0 1
    outer loop
      vertex -17.25 30 3
      vertex -19.25 30 3
      vertex -17.25 22 3
    endloop
  endfacet
  facet normal 0 0 1
    outer loop
      vertex -10.5 22 3
      vertex -17.25 22 3
      vertex -10.5 21.9 3
    endloop
  endfacet
  facet normal 0 0 1
    outer loop
      vertex 19.25 50.5 3
      vertex 17.25 48.5 3
      vertex 19.25 20 3
    endloop
  endfacet
  facet normal 0 0 1
    outer loop
      vertex 19.25 50.5 3
      vertex 12.5 48.6 3
      vertex 17.25 48.5 3
    endloop
  endfacet
  facet normal 0 0 1
    outer loop
      vertex 19.25 50.5 3
      vertex -10.5 48.6 3
      vertex 12.5 48.6 3
    endloop
  endfacet
  facet normal 0 0 1
    outer loop
      vertex -10.5 48.6 3
      vertex -17.25 48.5 3
      vertex -10.5 48.5 3
    endloop
  endfacet
  facet normal -0 0 1
    outer loop
      vertex -19.25 50.5 3
      vertex -10.5 48.6 3
      vertex 19.25 50.5 3
    endloop
  endfacet
  facet normal 0 0 1
    outer loop
      vertex -10.5 48.6 3
      vertex -19.25 50.5 3
      vertex -17.25 48.5 3
    endloop
  endfacet
  facet normal 0 0 1
    outer loop
      vertex -19.25 40 3
      vertex -17.25 48.5 3
      vertex -19.25 50.5 3
    endloop
  endfacet
  facet normal 0 0 1
    outer loop
      vertex -17.25 48.5 3
      vertex -19.25 40 3
      vertex -17.25 40 3
    endloop
  endfacet
  facet normal -0 0 1
    outer loop
      vertex 17.25 22 3
      vertex 19.25 20 3
      vertex 17.25 48.5 3
    endloop
  endfacet
  facet normal 0 0 1
    outer loop
      vertex 12.5 21.9 3
      vertex 17.25 22 3
      vertex 12.5 22 3
    endloop
  endfacet
  facet normal 0 0 1
    outer loop
      vertex 17.25 22 3
      vertex 12.5 21.9 3
      vertex 19.25 20 3
    endloop
  endfacet
  facet normal -0 0 1
    outer loop
      vertex -10.5 21.9 3
      vertex 19.25 20 3
      vertex 12.5 21.9 3
    endloop
  endfacet
  facet normal 0 0 1
    outer loop
      vertex -19.25 20 3
      vertex -10.5 21.9 3
      vertex -17.25 22 3
    endloop
  endfacet
  facet normal 0 0 1
    outer loop
      vertex -10.5 21.9 3
      vertex -19.25 20 3
      vertex 19.25 20 3
    endloop
  endfacet
  facet normal 0 0 1
    outer loop
      vertex -19.25 20 3
      vertex -17.25 22 3
      vertex -19.25 30 3
    endloop
  endfacet
  facet normal 0 0 1
    outer loop
      vertex 17.25 48.5 3
      vertex 12.5 48.6 3
      vertex 12.5 48.5 3
    endloop
  endfacet
  facet normal 0 -1 0
    outer loop
      vertex -17.25 22 3
      vertex -10.5 22 4.5
      vertex -17.25 22 4.5
    endloop
  endfacet
  facet normal 0 -1 -0
    outer loop
      vertex -10.5 22 4.5
      vertex -17.25 22 3
      vertex -10.5 22 3
    endloop
  endfacet
  facet normal 0 -1 0
    outer loop
      vertex 12.5 22 4.5
      vertex 12.5 22 3
      vertex 13.25 22 4.5
    endloop
  endfacet
  facet normal 0 -1 0
    outer loop
      vertex 13.25 22 4.5
      vertex 17.25 22 6
      vertex 13.25 22 6
    endloop
  endfacet
  facet normal 0 -1 0
    outer loop
      vertex 17.25 22 3
      vertex 13.25 22 4.5
      vertex 12.5 22 3
    endloop
  endfacet
  facet normal 0 -1 0
    outer loop
      vertex 13.25 22 4.5
      vertex 17.25 22 3
      vertex 17.25 22 6
    endloop
  endfacet
  facet normal -1 0 0
    outer loop
      vertex -19.25 50.5 0
      vertex -19.25 40 0.75
      vertex -19.25 50.5 3
    endloop
  endfacet
  facet normal -1 0 0
    outer loop
      vertex -19.25 50.5 0
      vertex -19.25 30 0.75
      vertex -19.25 40 0.75
    endloop
  endfacet
  facet normal -1 0 0
    outer loop
      vertex -19.25 20 0
      vertex -19.25 30 0.75
      vertex -19.25 50.5 0
    endloop
  endfacet
  facet normal -1 0 0
    outer loop
      vertex -19.25 20 3
      vertex -19.25 30 0.75
      vertex -19.25 20 0
    endloop
  endfacet
  facet normal -1 0 0
    outer loop
      vertex -19.25 30 0.75
      vertex -19.25 20 3
      vertex -19.25 30 3
    endloop
  endfacet
  facet normal -1 -0 0
    outer loop
      vertex -19.25 50.5 3
      vertex -19.25 40 0.75
      vertex -19.25 40 3
    endloop
  endfacet
  facet normal 1 -0 0
    outer loop
      vertex 19.25 20 3
      vertex 19.25 50.5 0
      vertex 19.25 50.5 3
    endloop
  endfacet
  facet normal 1 0 0
    outer loop
      vertex 19.25 50.5 0
      vertex 19.25 20 3
      vertex 19.25 20 0
    endloop
  endfacet
  facet normal 0 0 -1
    outer loop
      vertex 12.5 25.9 0
      vertex 8 35.25 0
      vertex 12.5 44.6 0
    endloop
  endfacet
  facet normal 0 0 -1
    outer loop
      vertex 12.5 25.9 0
      vertex 7.96629 34.5639 0
      vertex 8 35.25 0
    endloop
  endfacet
  facet normal 0 0 -1
    outer loop
      vertex 12.5 25.9 0
      vertex 7.8655 33.8844 0
      vertex 7.96629 34.5639 0
    endloop
  endfacet
  facet normal 0 0 -1
    outer loop
      vertex 12.5 25.9 0
      vertex 7.69858 33.218 0
      vertex 7.8655 33.8844 0
    endloop
  endfacet
  facet normal 0 0 -1
    outer loop
      vertex 12.5 25.9 0
      vertex 7.46716 32.5712 0
      vertex 7.69858 33.218 0
    endloop
  endfacet
  facet normal 0 0 -1
    outer loop
      vertex 12.5 25.9 0
      vertex 7.17345 31.9502 0
      vertex 7.46716 32.5712 0
    endloop
  endfacet
  facet normal 0 0 -1
    outer loop
      vertex 12.5 25.9 0
      vertex 6.82029 31.361 0
      vertex 7.17345 31.9502 0
    endloop
  endfacet
  facet normal 0 0 -1
    outer loop
      vertex 12.5 25.9 0
      vertex 6.41107 30.8092 0
      vertex 6.82029 31.361 0
    endloop
  endfacet
  facet normal 0 0 -1
    outer loop
      vertex 12.5 25.9 0
      vertex 5.94975 30.3003 0
      vertex 6.41107 30.8092 0
    endloop
  endfacet
  facet normal 0 0 -1
    outer loop
      vertex 12.5 25.9 0
      vertex 5.44075 29.8389 0
      vertex 5.94975 30.3003 0
    endloop
  endfacet
  facet normal 0 0 -1
    outer loop
      vertex 12.5 25.9 0
      vertex 4.88899 29.4297 0
      vertex 5.44075 29.8389 0
    endloop
  endfacet
  facet normal 0 0 -1
    outer loop
      vertex 12.5 25.9 0
      vertex 4.29978 29.0765 0
      vertex 4.88899 29.4297 0
    endloop
  endfacet
  facet normal 0 0 -1
    outer loop
      vertex 12.5 25.9 0
      vertex 3.67878 28.7828 0
      vertex 4.29978 29.0765 0
    endloop
  endfacet
  facet normal 0 0 -1
    outer loop
      vertex 12.5 25.9 0
      vertex 3.03199 28.5514 0
      vertex 3.67878 28.7828 0
    endloop
  endfacet
  facet normal 0 0 -1
    outer loop
      vertex 12.5 25.9 0
      vertex 2.36563 28.3845 0
      vertex 3.03199 28.5514 0
    endloop
  endfacet
  facet normal 0 0 -1
    outer loop
      vertex 12.5 25.9 0
      vertex 1.68612 28.2837 0
      vertex 2.36563 28.3845 0
    endloop
  endfacet
  facet normal 0 0 -1
    outer loop
      vertex 12.5 25.9 0
      vertex 1 28.25 0
      vertex 1.68612 28.2837 0
    endloop
  endfacet
  facet normal 0 0 -1
    outer loop
      vertex -10.5 25.9 0
      vertex 1 28.25 0
      vertex 12.5 25.9 0
    endloop
  endfacet
  facet normal -0 0 -1
    outer loop
      vertex 1 28.25 0
      vertex -10.5 25.9 0
      vertex 0.31388 28.2837 0
    endloop
  endfacet
  facet normal -0 0 -1
    outer loop
      vertex -5.96629 34.5639 0
      vertex -10.5 25.9 0
      vertex -6 35.25 0
    endloop
  endfacet
  facet normal -0 0 -1
    outer loop
      vertex -5.8655 33.8844 0
      vertex -10.5 25.9 0
      vertex -5.96629 34.5639 0
    endloop
  endfacet
  facet normal -0 0 -1
    outer loop
      vertex -5.69858 33.218 0
      vertex -10.5 25.9 0
      vertex -5.8655 33.8844 0
    endloop
  endfacet
  facet normal -0 0 -1
    outer loop
      vertex -5.46716 32.5712 0
      vertex -10.5 25.9 0
      vertex -5.69858 33.218 0
    endloop
  endfacet
  facet normal -0 0 -1
    outer loop
      vertex -5.17345 31.9502 0
      vertex -10.5 25.9 0
      vertex -5.46716 32.5712 0
    endloop
  endfacet
  facet normal -0 0 -1
    outer loop
      vertex -4.82029 31.361 0
      vertex -10.5 25.9 0
      vertex -5.17345 31.9502 0
    endloop
  endfacet
  facet normal -0 0 -1
    outer loop
      vertex -4.41107 30.8092 0
      vertex -10.5 25.9 0
      vertex -4.82029 31.361 0
    endloop
  endfacet
  facet normal -0 0 -1
    outer loop
      vertex -3.94975 30.3003 0
      vertex -10.5 25.9 0
      vertex -4.41107 30.8092 0
    endloop
  endfacet
  facet normal -0 0 -1
    outer loop
      vertex -3.44075 29.8389 0
      vertex -10.5 25.9 0
      vertex -3.94975 30.3003 0
    endloop
  endfacet
  facet normal -0 0 -1
    outer loop
      vertex -2.88899 29.4297 0
      vertex -10.5 25.9 0
      vertex -3.44075 29.8389 0
    endloop
  endfacet
  facet normal -0 0 -1
    outer loop
      vertex -2.29978 29.0765 0
      vertex -10.5 25.9 0
      vertex -2.88899 29.4297 0
    endloop
  endfacet
  facet normal -0 0 -1
    outer loop
      vertex -1.67878 28.7828 0
      vertex -10.5 25.9 0
      vertex -2.29978 29.0765 0
    endloop
  endfacet
  facet normal -0 0 -1
    outer loop
      vertex -1.03199 28.5514 0
      vertex -10.5 25.9 0
      vertex -1.67878 28.7828 0
    endloop
  endfacet
  facet normal -0 0 -1
    outer loop
      vertex -0.365632 28.3845 0
      vertex -10.5 25.9 0
      vertex -1.03199 28.5514 0
    endloop
  endfacet
  facet normal -0 0 -1
    outer loop
      vertex 0.31388 28.2837 0
      vertex -10.5 25.9 0
      vertex -0.365632 28.3845 0
    endloop
  endfacet
  facet normal 0 0 -1
    outer loop
      vertex 12.5 25.9 0
      vertex 19.25 20 0
      vertex 12.5 21.9 0
    endloop
  endfacet
  facet normal 0 0 -1
    outer loop
      vertex 19.25 20 0
      vertex -10.5 21.9 0
      vertex 12.5 21.9 0
    endloop
  endfacet
  facet normal 0 0 -1
    outer loop
      vertex -19.25 20 0
      vertex -10.5 25.9 0
      vertex -10.5 21.9 0
    endloop
  endfacet
  facet normal -0 0 -1
    outer loop
      vertex -10.5 25.9 0
      vertex -19.25 20 0
      vertex -10.5 44.6 0
    endloop
  endfacet
  facet normal 0 0 -1
    outer loop
      vertex -19.25 50.5 0
      vertex -10.5 44.6 0
      vertex -19.25 20 0
    endloop
  endfacet
  facet normal 0 0 -1
    outer loop
      vertex -19.25 20 0
      vertex -10.5 21.9 0
      vertex 19.25 20 0
    endloop
  endfacet
  facet normal 0 0 -1
    outer loop
      vertex 19.25 20 0
      vertex 12.5 25.9 0
      vertex 19.25 50.5 0
    endloop
  endfacet
  facet normal 0 0 -1
    outer loop
      vertex 12.5 44.6 0
      vertex 19.25 50.5 0
      vertex 12.5 25.9 0
    endloop
  endfacet
  facet normal 0 0 -1
    outer loop
      vertex 12.5 48.6 0
      vertex 19.25 50.5 0
      vertex 12.5 44.6 0
    endloop
  endfacet
  facet normal 0 0 -1
    outer loop
      vertex -10.5 48.6 0
      vertex 19.25 50.5 0
      vertex 12.5 48.6 0
    endloop
  endfacet
  facet normal 0 0 -1
    outer loop
      vertex -10.5 48.6 0
      vertex -19.25 50.5 0
      vertex 19.25 50.5 0
    endloop
  endfacet
  facet normal 0 0 -1
    outer loop
      vertex -10.5 44.6 0
      vertex -19.25 50.5 0
      vertex -10.5 48.6 0
    endloop
  endfacet
  facet normal 0 0 -1
    outer loop
      vertex 7.96629 35.9361 0
      vertex 12.5 44.6 0
      vertex 8 35.25 0
    endloop
  endfacet
  facet normal 0 0 -1
    outer loop
      vertex 7.8655 36.6156 0
      vertex 12.5 44.6 0
      vertex 7.96629 35.9361 0
    endloop
  endfacet
  facet normal 0 0 -1
    outer loop
      vertex 7.69858 37.282 0
      vertex 12.5 44.6 0
      vertex 7.8655 36.6156 0
    endloop
  endfacet
  facet normal 0 0 -1
    outer loop
      vertex 7.46716 37.9288 0
      vertex 12.5 44.6 0
      vertex 7.69858 37.282 0
    endloop
  endfacet
  facet normal 0 0 -1
    outer loop
      vertex 7.17345 38.5498 0
      vertex 12.5 44.6 0
      vertex 7.46716 37.9288 0
    endloop
  endfacet
  facet normal 0 0 -1
    outer loop
      vertex 6.82029 39.139 0
      vertex 12.5 44.6 0
      vertex 7.17345 38.5498 0
    endloop
  endfacet
  facet normal 0 0 -1
    outer loop
      vertex 6.41107 39.6908 0
      vertex 12.5 44.6 0
      vertex 6.82029 39.139 0
    endloop
  endfacet
  facet normal 0 0 -1
    outer loop
      vertex 5.94975 40.1997 0
      vertex 12.5 44.6 0
      vertex 6.41107 39.6908 0
    endloop
  endfacet
  facet normal 0 0 -1
    outer loop
      vertex 5.44075 40.6611 0
      vertex 12.5 44.6 0
      vertex 5.94975 40.1997 0
    endloop
  endfacet
  facet normal 0 0 -1
    outer loop
      vertex 4.88899 41.0703 0
      vertex 12.5 44.6 0
      vertex 5.44075 40.6611 0
    endloop
  endfacet
  facet normal 0 0 -1
    outer loop
      vertex 4.29978 41.4234 0
      vertex 12.5 44.6 0
      vertex 4.88899 41.0703 0
    endloop
  endfacet
  facet normal 0 0 -1
    outer loop
      vertex 3.67878 41.7172 0
      vertex 12.5 44.6 0
      vertex 4.29978 41.4234 0
    endloop
  endfacet
  facet normal 0 0 -1
    outer loop
      vertex 3.03199 41.9486 0
      vertex 12.5 44.6 0
      vertex 3.67878 41.7172 0
    endloop
  endfacet
  facet normal 0 0 -1
    outer loop
      vertex 2.36563 42.1155 0
      vertex 12.5 44.6 0
      vertex 3.03199 41.9486 0
    endloop
  endfacet
  facet normal 0 0 -1
    outer loop
      vertex 1.68612 42.2163 0
      vertex 12.5 44.6 0
      vertex 2.36563 42.1155 0
    endloop
  endfacet
  facet normal 0 0 -1
    outer loop
      vertex 1 42.25 0
      vertex 12.5 44.6 0
      vertex 1.68612 42.2163 0
    endloop
  endfacet
  facet normal 0 0 -1
    outer loop
      vertex -10.5 44.6 0
      vertex 1 42.25 0
      vertex 0.31388 42.2163 0
    endloop
  endfacet
  facet normal 0 0 -1
    outer loop
      vertex -10.5 44.6 0
      vertex 0.31388 42.2163 0
      vertex -0.365632 42.1155 0
    endloop
  endfacet
  facet normal 0 0 -1
    outer loop
      vertex -10.5 44.6 0
      vertex -6 35.25 0
      vertex -10.5 25.9 0
    endloop
  endfacet
  facet normal 0 0 -1
    outer loop
      vertex -6 35.25 0
      vertex -10.5 44.6 0
      vertex -5.96629 35.9361 0
    endloop
  endfacet
  facet normal 0 0 -1
    outer loop
      vertex -5.96629 35.9361 0
      vertex -10.5 44.6 0
      vertex -5.8655 36.6156 0
    endloop
  endfacet
  facet normal 0 0 -1
    outer loop
      vertex -5.8655 36.6156 0
      vertex -10.5 44.6 0
      vertex -5.69858 37.282 0
    endloop
  endfacet
  facet normal 0 0 -1
    outer loop
      vertex 1 42.25 0
      vertex -10.5 44.6 0
      vertex 12.5 44.6 0
    endloop
  endfacet
  facet normal 0 0 -1
    outer loop
      vertex -1.03199 41.9486 0
      vertex -10.5 44.6 0
      vertex -0.365632 42.1155 0
    endloop
  endfacet
  facet normal 0 0 -1
    outer loop
      vertex -1.67878 41.7172 0
      vertex -10.5 44.6 0
      vertex -1.03199 41.9486 0
    endloop
  endfacet
  facet normal 0 0 -1
    outer loop
      vertex -2.29978 41.4234 0
      vertex -10.5 44.6 0
      vertex -1.67878 41.7172 0
    endloop
  endfacet
  facet normal 0 0 -1
    outer loop
      vertex -2.88899 41.0703 0
      vertex -10.5 44.6 0
      vertex -2.29978 41.4234 0
    endloop
  endfacet
  facet normal 0 0 -1
    outer loop
      vertex -3.44075 40.6611 0
      vertex -10.5 44.6 0
      vertex -2.88899 41.0703 0
    endloop
  endfacet
  facet normal 0 0 -1
    outer loop
      vertex -3.94975 40.1997 0
      vertex -10.5 44.6 0
      vertex -3.44075 40.6611 0
    endloop
  endfacet
  facet normal 0 0 -1
    outer loop
      vertex -4.41107 39.6908 0
      vertex -10.5 44.6 0
      vertex -3.94975 40.1997 0
    endloop
  endfacet
  facet normal 0 0 -1
    outer loop
      vertex -4.82029 39.139 0
      vertex -10.5 44.6 0
      vertex -4.41107 39.6908 0
    endloop
  endfacet
  facet normal 0 0 -1
    outer loop
      vertex -5.17345 38.5498 0
      vertex -10.5 44.6 0
      vertex -4.82029 39.139 0
    endloop
  endfacet
  facet normal 0 0 -1
    outer loop
      vertex -5.46716 37.9288 0
      vertex -10.5 44.6 0
      vertex -5.17345 38.5498 0
    endloop
  endfacet
  facet normal 0 0 -1
    outer loop
      vertex -5.69858 37.282 0
      vertex -10.5 44.6 0
      vertex -5.46716 37.9288 0
    endloop
  endfacet
  facet normal 0 -1 0
    outer loop
      vertex -19.25 20 0
      vertex 19.25 20 3
      vertex -19.25 20 3
    endloop
  endfacet
  facet normal 0 -1 -0
    outer loop
      vertex 19.25 20 3
      vertex -19.25 20 0
      vertex 19.25 20 0
    endloop
  endfacet
  facet normal 0 1 -0
    outer loop
      vertex 19.25 50.5 0
      vertex -19.25 50.5 3
      vertex 19.25 50.5 3
    endloop
  endfacet
  facet normal 0 1 0
    outer loop
      vertex -19.25 50.5 3
      vertex 19.25 50.5 0
      vertex -19.25 50.5 0
    endloop
  endfacet
  facet normal -1 0 0
    outer loop
      vertex -17.25 22 3
      vertex -17.25 30 4.5
      vertex -17.25 30 3
    endloop
  endfacet
  facet normal -1 -0 0
    outer loop
      vertex -17.25 30 4.5
      vertex -17.25 22 3
      vertex -17.25 22 4.5
    endloop
  endfacet
  facet normal -1 0 0
    outer loop
      vertex -17.25 40 3
      vertex -17.25 48.5 4.5
      vertex -17.25 48.5 3
    endloop
  endfacet
  facet normal -1 -0 0
    outer loop
      vertex -17.25 48.5 4.5
      vertex -17.25 40 3
      vertex -17.25 40 4.5
    endloop
  endfacet
  facet normal 0 0 1
    outer loop
      vertex -10.5 48.5 4.5
      vertex -17.25 48.5 4.5
      vertex -10.5 44.6 4.5
    endloop
  endfacet
  facet normal 0 0 1
    outer loop
      vertex 12.5 44.6 4.5
      vertex 8 35.25 4.5
      vertex 12.5 25.9 4.5
    endloop
  endfacet
  facet normal 0 0 1
    outer loop
      vertex 12.5 44.6 4.5
      vertex 7.96629 35.9361 4.5
      vertex 8 35.25 4.5
    endloop
  endfacet
  facet normal 0 0 1
    outer loop
      vertex 12.5 44.6 4.5
      vertex 7.8655 36.6156 4.5
      vertex 7.96629 35.9361 4.5
    endloop
  endfacet
  facet normal 0 0 1
    outer loop
      vertex 12.5 44.6 4.5
      vertex 7.69858 37.282 4.5
      vertex 7.8655 36.6156 4.5
    endloop
  endfacet
  facet normal 0 0 1
    outer loop
      vertex 12.5 44.6 4.5
      vertex 7.46716 37.9288 4.5
      vertex 7.69858 37.282 4.5
    endloop
  endfacet
  facet normal 0 0 1
    outer loop
      vertex 12.5 44.6 4.5
      vertex 7.17345 38.5498 4.5
      vertex 7.46716 37.9288 4.5
    endloop
  endfacet
  facet normal 0 0 1
    outer loop
      vertex 12.5 44.6 4.5
      vertex 6.82029 39.139 4.5
      vertex 7.17345 38.5498 4.5
    endloop
  endfacet
  facet normal 0 0 1
    outer loop
      vertex 12.5 44.6 4.5
      vertex 6.41107 39.6908 4.5
      vertex 6.82029 39.139 4.5
    endloop
  endfacet
  facet normal 0 0 1
    outer loop
      vertex 12.5 44.6 4.5
      vertex 5.94975 40.1997 4.5
      vertex 6.41107 39.6908 4.5
    endloop
  endfacet
  facet normal 0 0 1
    outer loop
      vertex 12.5 44.6 4.5
      vertex 5.44075 40.6611 4.5
      vertex 5.94975 40.1997 4.5
    endloop
  endfacet
  facet normal 0 0 1
    outer loop
      vertex 12.5 44.6 4.5
      vertex 4.88899 41.0703 4.5
      vertex 5.44075 40.6611 4.5
    endloop
  endfacet
  facet normal 0 0 1
    outer loop
      vertex 12.5 44.6 4.5
      vertex 4.29978 41.4234 4.5
      vertex 4.88899 41.0703 4.5
    endloop
  endfacet
  facet normal 0 0 1
    outer loop
      vertex 12.5 44.6 4.5
      vertex 3.67878 41.7172 4.5
      vertex 4.29978 41.4234 4.5
    endloop
  endfacet
  facet normal 0 0 1
    outer loop
      vertex 12.5 44.6 4.5
      vertex 3.03199 41.9486 4.5
      vertex 3.67878 41.7172 4.5
    endloop
  endfacet
  facet normal 0 0 1
    outer loop
      vertex 12.5 44.6 4.5
      vertex 2.36563 42.1155 4.5
      vertex 3.03199 41.9486 4.5
    endloop
  endfacet
  facet normal 0 0 1
    outer loop
      vertex 12.5 44.6 4.5
      vertex 1.68612 42.2163 4.5
      vertex 2.36563 42.1155 4.5
    endloop
  endfacet
  facet normal 0 0 1
    outer loop
      vertex 12.5 44.6 4.5
      vertex 1 42.25 4.5
      vertex 1.68612 42.2163 4.5
    endloop
  endfacet
  facet normal -0 0 1
    outer loop
      vertex -10.5 44.6 4.5
      vertex 1 42.25 4.5
      vertex 12.5 44.6 4.5
    endloop
  endfacet
  facet normal 0 0 1
    outer loop
      vertex 1 42.25 4.5
      vertex -10.5 44.6 4.5
      vertex 0.31388 42.2163 4.5
    endloop
  endfacet
  facet normal 0 0 1
    outer loop
      vertex -5.96629 35.9361 4.5
      vertex -10 40 4.5
      vertex -6 35.25 4.5
    endloop
  endfacet
  facet normal 0 0 1
    outer loop
      vertex -5.8655 36.6156 4.5
      vertex -10 40 4.5
      vertex -5.96629 35.9361 4.5
    endloop
  endfacet
  facet normal 0 0 1
    outer loop
      vertex -5.69858 37.282 4.5
      vertex -10 40 4.5
      vertex -5.8655 36.6156 4.5
    endloop
  endfacet
  facet normal 0 0 1
    outer loop
      vertex -5.46716 37.9288 4.5
      vertex -10 40 4.5
      vertex -5.69858 37.282 4.5
    endloop
  endfacet
  facet normal 0 0 1
    outer loop
      vertex -5.17345 38.5498 4.5
      vertex -10 40 4.5
      vertex -5.46716 37.9288 4.5
    endloop
  endfacet
  facet normal 0 0 1
    outer loop
      vertex -4.82029 39.139 4.5
      vertex -10 40 4.5
      vertex -5.17345 38.5498 4.5
    endloop
  endfacet
  facet normal 0 0 1
    outer loop
      vertex -4.41107 39.6908 4.5
      vertex -10 40 4.5
      vertex -4.82029 39.139 4.5
    endloop
  endfacet
  facet normal 0 0 1
    outer loop
      vertex -3.94975 40.1997 4.5
      vertex -10 40 4.5
      vertex -4.41107 39.6908 4.5
    endloop
  endfacet
  facet normal 0 0 1
    outer loop
      vertex -10.5 44.6 4.5
      vertex -3.94975 40.1997 4.5
      vertex -3.44075 40.6611 4.5
    endloop
  endfacet
  facet normal 0 0 1
    outer loop
      vertex -10.5 44.6 4.5
      vertex -3.44075 40.6611 4.5
      vertex -2.88899 41.0703 4.5
    endloop
  endfacet
  facet normal 0 0 1
    outer loop
      vertex -10.5 44.6 4.5
      vertex -2.88899 41.0703 4.5
      vertex -2.29978 41.4234 4.5
    endloop
  endfacet
  facet normal 0 0 1
    outer loop
      vertex -10.5 44.6 4.5
      vertex -2.29978 41.4234 4.5
      vertex -1.67878 41.7172 4.5
    endloop
  endfacet
  facet normal 0 0 1
    outer loop
      vertex -10.5 44.6 4.5
      vertex -1.67878 41.7172 4.5
      vertex -1.03199 41.9486 4.5
    endloop
  endfacet
  facet normal 0 0 1
    outer loop
      vertex -10.5 44.6 4.5
      vertex -1.03199 41.9486 4.5
      vertex -0.365632 42.1155 4.5
    endloop
  endfacet
  facet normal 0 0 1
    outer loop
      vertex 0.31388 42.2163 4.5
      vertex -10.5 44.6 4.5
      vertex -0.365632 42.1155 4.5
    endloop
  endfacet
  facet normal 0 0 1
    outer loop
      vertex -3.94975 40.1997 4.5
      vertex -10.5 44.6 4.5
      vertex -10 40 4.5
    endloop
  endfacet
  facet normal 0 0 1
    outer loop
      vertex -17.25 40 4.5
      vertex -10.5 44.6 4.5
      vertex -17.25 48.5 4.5
    endloop
  endfacet
  facet normal 0 0 1
    outer loop
      vertex -10.5 44.6 4.5
      vertex -17.25 40 4.5
      vertex -10 40 4.5
    endloop
  endfacet
  facet normal 0 0 1
    outer loop
      vertex 12.5 44.6 4.5
      vertex 13.25 48.5 4.5
      vertex 12.5 48.5 4.5
    endloop
  endfacet
  facet normal 0 0 1
    outer loop
      vertex 13.25 48.5 4.5
      vertex 12.5 44.6 4.5
      vertex 13.25 22 4.5
    endloop
  endfacet
  facet normal -0 0 1
    outer loop
      vertex 12.5 25.9 4.5
      vertex 13.25 22 4.5
      vertex 12.5 44.6 4.5
    endloop
  endfacet
  facet normal 0 0 1
    outer loop
      vertex 13.25 22 4.5
      vertex 12.5 25.9 4.5
      vertex 12.5 22 4.5
    endloop
  endfacet
  facet normal -0 0 1
    outer loop
      vertex 7.96629 34.5639 4.5
      vertex 12.5 25.9 4.5
      vertex 8 35.25 4.5
    endloop
  endfacet
  facet normal -0 0 1
    outer loop
      vertex 7.8655 33.8844 4.5
      vertex 12.5 25.9 4.5
      vertex 7.96629 34.5639 4.5
    endloop
  endfacet
  facet normal -0 0 1
    outer loop
      vertex 7.69858 33.218 4.5
      vertex 12.5 25.9 4.5
      vertex 7.8655 33.8844 4.5
    endloop
  endfacet
  facet normal -0 0 1
    outer loop
      vertex 7.46716 32.5712 4.5
      vertex 12.5 25.9 4.5
      vertex 7.69858 33.218 4.5
    endloop
  endfacet
  facet normal -0 0 1
    outer loop
      vertex 7.17345 31.9502 4.5
      vertex 12.5 25.9 4.5
      vertex 7.46716 32.5712 4.5
    endloop
  endfacet
  facet normal -0 0 1
    outer loop
      vertex 6.82029 31.361 4.5
      vertex 12.5 25.9 4.5
      vertex 7.17345 31.9502 4.5
    endloop
  endfacet
  facet normal -0 0 1
    outer loop
      vertex 6.41107 30.8092 4.5
      vertex 12.5 25.9 4.5
      vertex 6.82029 31.361 4.5
    endloop
  endfacet
  facet normal -0 0 1
    outer loop
      vertex 5.94975 30.3003 4.5
      vertex 12.5 25.9 4.5
      vertex 6.41107 30.8092 4.5
    endloop
  endfacet
  facet normal -0 0 1
    outer loop
      vertex 5.44075 29.8389 4.5
      vertex 12.5 25.9 4.5
      vertex 5.94975 30.3003 4.5
    endloop
  endfacet
  facet normal -0 0 1
    outer loop
      vertex 4.88899 29.4297 4.5
      vertex 12.5 25.9 4.5
      vertex 5.44075 29.8389 4.5
    endloop
  endfacet
  facet normal -0 0 1
    outer loop
      vertex 4.29978 29.0765 4.5
      vertex 12.5 25.9 4.5
      vertex 4.88899 29.4297 4.5
    endloop
  endfacet
  facet normal -0 0 1
    outer loop
      vertex 3.67878 28.7828 4.5
      vertex 12.5 25.9 4.5
      vertex 4.29978 29.0765 4.5
    endloop
  endfacet
  facet normal -0 0 1
    outer loop
      vertex 3.03199 28.5514 4.5
      vertex 12.5 25.9 4.5
      vertex 3.67878 28.7828 4.5
    endloop
  endfacet
  facet normal -0 0 1
    outer loop
      vertex 2.36563 28.3845 4.5
      vertex 12.5 25.9 4.5
      vertex 3.03199 28.5514 4.5
    endloop
  endfacet
  facet normal -0 0 1
    outer loop
      vertex 1.68612 28.2837 4.5
      vertex 12.5 25.9 4.5
      vertex 2.36563 28.3845 4.5
    endloop
  endfacet
  facet normal -0 0 1
    outer loop
      vertex 1 28.25 4.5
      vertex 12.5 25.9 4.5
      vertex 1.68612 28.2837 4.5
    endloop
  endfacet
  facet normal 0 0 1
    outer loop
      vertex -10.5 25.9 4.5
      vertex 1 28.25 4.5
      vertex 0.31388 28.2837 4.5
    endloop
  endfacet
  facet normal 0 0 1
    outer loop
      vertex -10.5 25.9 4.5
      vertex 0.31388 28.2837 4.5
      vertex -0.365632 28.3845 4.5
    endloop
  endfacet
  facet normal 0 0 1
    outer loop
      vertex -10 30 4.5
      vertex -6 35.25 4.5
      vertex -10 40 4.5
    endloop
  endfacet
  facet normal 0 0 1
    outer loop
      vertex -6 35.25 4.5
      vertex -10 30 4.5
      vertex -5.96629 34.5639 4.5
    endloop
  endfacet
  facet normal 0 0 1
    outer loop
      vertex -5.96629 34.5639 4.5
      vertex -10 30 4.5
      vertex -5.8655 33.8844 4.5
    endloop
  endfacet
  facet normal 0 0 1
    outer loop
      vertex -5.8655 33.8844 4.5
      vertex -10 30 4.5
      vertex -5.69858 33.218 4.5
    endloop
  endfacet
  facet normal 0 0 1
    outer loop
      vertex -5.69858 33.218 4.5
      vertex -10 30 4.5
      vertex -5.46716 32.5712 4.5
    endloop
  endfacet
  facet normal 0 0 1
    outer loop
      vertex -5.46716 32.5712 4.5
      vertex -10 30 4.5
      vertex -5.17345 31.9502 4.5
    endloop
  endfacet
  facet normal 0 0 1
    outer loop
      vertex -5.17345 31.9502 4.5
      vertex -10 30 4.5
      vertex -4.82029 31.361 4.5
    endloop
  endfacet
  facet normal 0 0 1
    outer loop
      vertex -10 30 4.5
      vertex -4.41107 30.8092 4.5
      vertex -4.82029 31.361 4.5
    endloop
  endfacet
  facet normal 0 0 1
    outer loop
      vertex -10 30 4.5
      vertex -3.94975 30.3003 4.5
      vertex -4.41107 30.8092 4.5
    endloop
  endfacet
  facet normal 0 0 1
    outer loop
      vertex -10.5 25.9 4.5
      vertex -3.94975 30.3003 4.5
      vertex -10 30 4.5
    endloop
  endfacet
  facet normal 0 0 1
    outer loop
      vertex -3.94975 30.3003 4.5
      vertex -10.5 25.9 4.5
      vertex -3.44075 29.8389 4.5
    endloop
  endfacet
  facet normal 0 0 1
    outer loop
      vertex -3.44075 29.8389 4.5
      vertex -10.5 25.9 4.5
      vertex -2.88899 29.4297 4.5
    endloop
  endfacet
  facet normal 0 0 1
    outer loop
      vertex -2.88899 29.4297 4.5
      vertex -10.5 25.9 4.5
      vertex -2.29978 29.0765 4.5
    endloop
  endfacet
  facet normal 0 0 1
    outer loop
      vertex -2.29978 29.0765 4.5
      vertex -10.5 25.9 4.5
      vertex -1.67878 28.7828 4.5
    endloop
  endfacet
  facet normal 0 0 1
    outer loop
      vertex -1.67878 28.7828 4.5
      vertex -10.5 25.9 4.5
      vertex -1.03199 28.5514 4.5
    endloop
  endfacet
  facet normal 0 0 1
    outer loop
      vertex -1.03199 28.5514 4.5
      vertex -10.5 25.9 4.5
      vertex -0.365632 28.3845 4.5
    endloop
  endfacet
  facet normal 0 0 1
    outer loop
      vertex 1 28.25 4.5
      vertex -10.5 25.9 4.5
      vertex 12.5 25.9 4.5
    endloop
  endfacet
  facet normal -0 0 1
    outer loop
      vertex -17.25 30 4.5
      vertex -10.5 25.9 4.5
      vertex -10 30 4.5
    endloop
  endfacet
  facet normal 0 0 1
    outer loop
      vertex -17.25 22 4.5
      vertex -10.5 25.9 4.5
      vertex -17.25 30 4.5
    endloop
  endfacet
  facet normal 0 0 1
    outer loop
      vertex -10.5 25.9 4.5
      vertex -17.25 22 4.5
      vertex -10.5 22 4.5
    endloop
  endfacet
  facet normal -0.595687 -0.803217 0
    outer loop
      vertex 4.88899 41.0703 0
      vertex 5.44075 40.6611 4.5
      vertex 4.88899 41.0703 4.5
    endloop
  endfacet
  facet normal -0.595687 -0.803217 -0
    outer loop
      vertex 5.44075 40.6611 4.5
      vertex 4.88899 41.0703 0
      vertex 5.44075 40.6611 0
    endloop
  endfacet
  facet normal -0.998795 0.0490736 0
    outer loop
      vertex 7.96629 34.5639 0
      vertex 8 35.25 4.5
      vertex 8 35.25 0
    endloop
  endfacet
  facet normal -0.998795 0.0490736 0
    outer loop
      vertex 8 35.25 4.5
      vertex 7.96629 34.5639 0
      vertex 7.96629 34.5639 4.5
    endloop
  endfacet
  facet normal 0.427661 -0.903939 0
    outer loop
      vertex -2.29978 41.4234 0
      vertex -1.67878 41.7172 4.5
      vertex -2.29978 41.4234 4.5
    endloop
  endfacet
  facet normal 0.427661 -0.903939 0
    outer loop
      vertex -1.67878 41.7172 4.5
      vertex -2.29978 41.4234 0
      vertex -1.67878 41.7172 0
    endloop
  endfacet
  facet normal 0.941548 -0.336879 0
    outer loop
      vertex -5.69858 37.282 4.5
      vertex -5.46716 37.9288 0
      vertex -5.46716 37.9288 4.5
    endloop
  endfacet
  facet normal 0.941548 -0.336879 0
    outer loop
      vertex -5.46716 37.9288 0
      vertex -5.69858 37.282 4.5
      vertex -5.69858 37.282 0
    endloop
  endfacet
  facet normal 0.336857 0.941556 -0
    outer loop
      vertex -1.03199 28.5514 0
      vertex -1.67878 28.7828 4.5
      vertex -1.03199 28.5514 4.5
    endloop
  endfacet
  facet normal 0.336857 0.941556 0
    outer loop
      vertex -1.67878 28.7828 4.5
      vertex -1.03199 28.5514 0
      vertex -1.67878 28.7828 0
    endloop
  endfacet
  facet normal -0.90399 -0.427554 0
    outer loop
      vertex 7.46716 37.9288 0
      vertex 7.17345 38.5498 4.5
      vertex 7.17345 38.5498 0
    endloop
  endfacet
  facet normal -0.90399 -0.427554 0
    outer loop
      vertex 7.17345 38.5498 4.5
      vertex 7.46716 37.9288 0
      vertex 7.46716 37.9288 4.5
    endloop
  endfacet
  facet normal -0.857724 -0.51411 0
    outer loop
      vertex 7.17345 38.5498 0
      vertex 6.82029 39.139 4.5
      vertex 6.82029 39.139 0
    endloop
  endfacet
  facet normal -0.857724 -0.51411 0
    outer loop
      vertex 6.82029 39.139 4.5
      vertex 7.17345 38.5498 0
      vertex 7.17345 38.5498 4.5
    endloop
  endfacet
  facet normal -0.336857 -0.941556 0
    outer loop
      vertex 3.03199 41.9486 0
      vertex 3.67878 41.7172 4.5
      vertex 3.03199 41.9486 4.5
    endloop
  endfacet
  facet normal -0.336857 -0.941556 -0
    outer loop
      vertex 3.67878 41.7172 4.5
      vertex 3.03199 41.9486 0
      vertex 3.67878 41.7172 0
    endloop
  endfacet
  facet normal -0.0490576 -0.998796 0
    outer loop
      vertex 1 42.25 0
      vertex 1.68612 42.2163 4.5
      vertex 1 42.25 4.5
    endloop
  endfacet
  facet normal -0.0490576 -0.998796 -0
    outer loop
      vertex 1.68612 42.2163 4.5
      vertex 1 42.25 0
      vertex 1.68612 42.2163 0
    endloop
  endfacet
  facet normal 0.998795 -0.0490736 0
    outer loop
      vertex -6 35.25 4.5
      vertex -5.96629 35.9361 0
      vertex -5.96629 35.9361 4.5
    endloop
  endfacet
  facet normal 0.998795 -0.0490736 0
    outer loop
      vertex -5.96629 35.9361 0
      vertex -6 35.25 4.5
      vertex -6 35.25 0
    endloop
  endfacet
  facet normal 0.803223 -0.595678 0
    outer loop
      vertex -4.82029 39.139 4.5
      vertex -4.41107 39.6908 0
      vertex -4.41107 39.6908 4.5
    endloop
  endfacet
  facet normal 0.803223 -0.595678 0
    outer loop
      vertex -4.41107 39.6908 0
      vertex -4.82029 39.139 4.5
      vertex -4.82029 39.139 0
    endloop
  endfacet
  facet normal 0.242961 -0.970036 0
    outer loop
      vertex -1.03199 41.9486 0
      vertex -0.365632 42.1155 4.5
      vertex -1.03199 41.9486 4.5
    endloop
  endfacet
  facet normal 0.242961 -0.970036 0
    outer loop
      vertex -0.365632 42.1155 4.5
      vertex -1.03199 41.9486 0
      vertex -0.365632 42.1155 0
    endloop
  endfacet
  facet normal -0.941548 0.336879 0
    outer loop
      vertex 7.46716 32.5712 0
      vertex 7.69858 33.218 4.5
      vertex 7.69858 33.218 0
    endloop
  endfacet
  facet normal -0.941548 0.336879 0
    outer loop
      vertex 7.69858 33.218 4.5
      vertex 7.46716 32.5712 0
      vertex 7.46716 32.5712 4.5
    endloop
  endfacet
  facet normal 0.0490576 0.998796 -0
    outer loop
      vertex 1 28.25 0
      vertex 0.31388 28.2837 4.5
      vertex 1 28.25 4.5
    endloop
  endfacet
  facet normal 0.0490576 0.998796 0
    outer loop
      vertex 0.31388 28.2837 4.5
      vertex 1 28.25 0
      vertex 0.31388 28.2837 0
    endloop
  endfacet
  facet normal 0.595687 0.803217 -0
    outer loop
      vertex -2.88899 29.4297 0
      vertex -3.44075 29.8389 4.5
      vertex -2.88899 29.4297 4.5
    endloop
  endfacet
  facet normal 0.595687 0.803217 0
    outer loop
      vertex -3.44075 29.8389 4.5
      vertex -2.88899 29.4297 0
      vertex -3.44075 29.8389 0
    endloop
  endfacet
  facet normal -0.989177 -0.146724 0
    outer loop
      vertex 7.96629 35.9361 0
      vertex 7.8655 36.6156 4.5
      vertex 7.8655 36.6156 0
    endloop
  endfacet
  facet normal -0.989177 -0.146724 0
    outer loop
      vertex 7.8655 36.6156 4.5
      vertex 7.96629 35.9361 0
      vertex 7.96629 35.9361 4.5
    endloop
  endfacet
  facet normal -0.970033 -0.242974 0
    outer loop
      vertex 7.8655 36.6156 0
      vertex 7.69858 37.282 4.5
      vertex 7.69858 37.282 0
    endloop
  endfacet
  facet normal -0.970033 -0.242974 0
    outer loop
      vertex 7.69858 37.282 4.5
      vertex 7.8655 36.6156 0
      vertex 7.8655 36.6156 4.5
    endloop
  endfacet
  facet normal -0.941548 -0.336879 0
    outer loop
      vertex 7.69858 37.282 0
      vertex 7.46716 37.9288 4.5
      vertex 7.46716 37.9288 0
    endloop
  endfacet
  facet normal -0.941548 -0.336879 0
    outer loop
      vertex 7.46716 37.9288 4.5
      vertex 7.69858 37.282 0
      vertex 7.69858 37.282 4.5
    endloop
  endfacet
  facet normal -0.740893 -0.671623 0
    outer loop
      vertex 6.41107 39.6908 0
      vertex 5.94975 40.1997 4.5
      vertex 5.94975 40.1997 0
    endloop
  endfacet
  facet normal -0.740893 -0.671623 0
    outer loop
      vertex 5.94975 40.1997 4.5
      vertex 6.41107 39.6908 0
      vertex 6.41107 39.6908 4.5
    endloop
  endfacet
  facet normal -0.803223 -0.595678 0
    outer loop
      vertex 6.82029 39.139 0
      vertex 6.41107 39.6908 4.5
      vertex 6.41107 39.6908 0
    endloop
  endfacet
  facet normal -0.803223 -0.595678 0
    outer loop
      vertex 6.41107 39.6908 4.5
      vertex 6.82029 39.139 0
      vertex 6.82029 39.139 4.5
    endloop
  endfacet
  facet normal -0.671614 -0.740901 0
    outer loop
      vertex 5.44075 40.6611 0
      vertex 5.94975 40.1997 4.5
      vertex 5.44075 40.6611 4.5
    endloop
  endfacet
  facet normal -0.671614 -0.740901 -0
    outer loop
      vertex 5.94975 40.1997 4.5
      vertex 5.44075 40.6611 0
      vertex 5.94975 40.1997 0
    endloop
  endfacet
  facet normal -0.51404 -0.857766 0
    outer loop
      vertex 4.29978 41.4234 0
      vertex 4.88899 41.0703 4.5
      vertex 4.29978 41.4234 4.5
    endloop
  endfacet
  facet normal -0.51404 -0.857766 -0
    outer loop
      vertex 4.88899 41.0703 4.5
      vertex 4.29978 41.4234 0
      vertex 4.88899 41.0703 0
    endloop
  endfacet
  facet normal 0.0490576 -0.998796 0
    outer loop
      vertex 0.31388 42.2163 0
      vertex 1 42.25 4.5
      vertex 0.31388 42.2163 4.5
    endloop
  endfacet
  facet normal 0.0490576 -0.998796 0
    outer loop
      vertex 1 42.25 4.5
      vertex 0.31388 42.2163 0
      vertex 1 42.25 0
    endloop
  endfacet
  facet normal -0.427661 -0.903939 0
    outer loop
      vertex 3.67878 41.7172 0
      vertex 4.29978 41.4234 4.5
      vertex 3.67878 41.7172 4.5
    endloop
  endfacet
  facet normal -0.427661 -0.903939 -0
    outer loop
      vertex 4.29978 41.4234 4.5
      vertex 3.67878 41.7172 0
      vertex 4.29978 41.4234 0
    endloop
  endfacet
  facet normal -0.24296 -0.970036 0
    outer loop
      vertex 2.36563 42.1155 0
      vertex 3.03199 41.9486 4.5
      vertex 2.36563 42.1155 4.5
    endloop
  endfacet
  facet normal -0.24296 -0.970036 -0
    outer loop
      vertex 3.03199 41.9486 4.5
      vertex 2.36563 42.1155 0
      vertex 3.03199 41.9486 0
    endloop
  endfacet
  facet normal -0.146736 -0.989176 0
    outer loop
      vertex 1.68612 42.2163 0
      vertex 2.36563 42.1155 4.5
      vertex 1.68612 42.2163 4.5
    endloop
  endfacet
  facet normal -0.146736 -0.989176 -0
    outer loop
      vertex 2.36563 42.1155 4.5
      vertex 1.68612 42.2163 0
      vertex 2.36563 42.1155 0
    endloop
  endfacet
  facet normal 0.970033 -0.242974 0
    outer loop
      vertex -5.8655 36.6156 4.5
      vertex -5.69858 37.282 0
      vertex -5.69858 37.282 4.5
    endloop
  endfacet
  facet normal 0.970033 -0.242974 0
    outer loop
      vertex -5.69858 37.282 0
      vertex -5.8655 36.6156 4.5
      vertex -5.8655 36.6156 0
    endloop
  endfacet
  facet normal 0.989177 -0.146724 0
    outer loop
      vertex -5.96629 35.9361 4.5
      vertex -5.8655 36.6156 0
      vertex -5.8655 36.6156 4.5
    endloop
  endfacet
  facet normal 0.989177 -0.146724 0
    outer loop
      vertex -5.8655 36.6156 0
      vertex -5.96629 35.9361 4.5
      vertex -5.96629 35.9361 0
    endloop
  endfacet
  facet normal 0.90399 -0.427554 0
    outer loop
      vertex -5.46716 37.9288 4.5
      vertex -5.17345 38.5498 0
      vertex -5.17345 38.5498 4.5
    endloop
  endfacet
  facet normal 0.90399 -0.427554 0
    outer loop
      vertex -5.17345 38.5498 0
      vertex -5.46716 37.9288 4.5
      vertex -5.46716 37.9288 0
    endloop
  endfacet
  facet normal 0.857724 -0.51411 0
    outer loop
      vertex -5.17345 38.5498 4.5
      vertex -4.82029 39.139 0
      vertex -4.82029 39.139 4.5
    endloop
  endfacet
  facet normal 0.857724 -0.51411 0
    outer loop
      vertex -4.82029 39.139 0
      vertex -5.17345 38.5498 4.5
      vertex -5.17345 38.5498 0
    endloop
  endfacet
  facet normal 0.336857 -0.941556 0
    outer loop
      vertex -1.67878 41.7172 0
      vertex -1.03199 41.9486 4.5
      vertex -1.67878 41.7172 4.5
    endloop
  endfacet
  facet normal 0.336857 -0.941556 0
    outer loop
      vertex -1.03199 41.9486 4.5
      vertex -1.67878 41.7172 0
      vertex -1.03199 41.9486 0
    endloop
  endfacet
  facet normal 0.146736 -0.989176 0
    outer loop
      vertex -0.365632 42.1155 0
      vertex 0.31388 42.2163 4.5
      vertex -0.365632 42.1155 4.5
    endloop
  endfacet
  facet normal 0.146736 -0.989176 0
    outer loop
      vertex 0.31388 42.2163 4.5
      vertex -0.365632 42.1155 0
      vertex 0.31388 42.2163 0
    endloop
  endfacet
  facet normal 0.595687 -0.803217 0
    outer loop
      vertex -3.44075 40.6611 0
      vertex -2.88899 41.0703 4.5
      vertex -3.44075 40.6611 4.5
    endloop
  endfacet
  facet normal 0.595687 -0.803217 0
    outer loop
      vertex -2.88899 41.0703 4.5
      vertex -3.44075 40.6611 0
      vertex -2.88899 41.0703 0
    endloop
  endfacet
  facet normal 0.671614 -0.740901 0
    outer loop
      vertex -3.94975 40.1997 0
      vertex -3.44075 40.6611 4.5
      vertex -3.94975 40.1997 4.5
    endloop
  endfacet
  facet normal 0.671614 -0.740901 0
    outer loop
      vertex -3.44075 40.6611 4.5
      vertex -3.94975 40.1997 0
      vertex -3.44075 40.6611 0
    endloop
  endfacet
  facet normal 0.51404 -0.857766 0
    outer loop
      vertex -2.88899 41.0703 0
      vertex -2.29978 41.4234 4.5
      vertex -2.88899 41.0703 4.5
    endloop
  endfacet
  facet normal 0.51404 -0.857766 0
    outer loop
      vertex -2.29978 41.4234 4.5
      vertex -2.88899 41.0703 0
      vertex -2.29978 41.4234 0
    endloop
  endfacet
  facet normal 0.740893 -0.671623 0
    outer loop
      vertex -4.41107 39.6908 4.5
      vertex -3.94975 40.1997 0
      vertex -3.94975 40.1997 4.5
    endloop
  endfacet
  facet normal 0.740893 -0.671623 0
    outer loop
      vertex -3.94975 40.1997 0
      vertex -4.41107 39.6908 4.5
      vertex -4.41107 39.6908 0
    endloop
  endfacet
  facet normal -0.998795 -0.0490736 0
    outer loop
      vertex 8 35.25 0
      vertex 7.96629 35.9361 4.5
      vertex 7.96629 35.9361 0
    endloop
  endfacet
  facet normal -0.998795 -0.0490736 0
    outer loop
      vertex 7.96629 35.9361 4.5
      vertex 8 35.25 0
      vertex 8 35.25 4.5
    endloop
  endfacet
  facet normal -0.146736 0.989176 0
    outer loop
      vertex 2.36563 28.3845 0
      vertex 1.68612 28.2837 4.5
      vertex 2.36563 28.3845 4.5
    endloop
  endfacet
  facet normal -0.146736 0.989176 0
    outer loop
      vertex 1.68612 28.2837 4.5
      vertex 2.36563 28.3845 0
      vertex 1.68612 28.2837 0
    endloop
  endfacet
  facet normal -0.90399 0.427554 0
    outer loop
      vertex 7.17345 31.9502 0
      vertex 7.46716 32.5712 4.5
      vertex 7.46716 32.5712 0
    endloop
  endfacet
  facet normal -0.90399 0.427554 0
    outer loop
      vertex 7.46716 32.5712 4.5
      vertex 7.17345 31.9502 0
      vertex 7.17345 31.9502 4.5
    endloop
  endfacet
  facet normal -0.336857 0.941556 0
    outer loop
      vertex 3.67878 28.7828 0
      vertex 3.03199 28.5514 4.5
      vertex 3.67878 28.7828 4.5
    endloop
  endfacet
  facet normal -0.336857 0.941556 0
    outer loop
      vertex 3.03199 28.5514 4.5
      vertex 3.67878 28.7828 0
      vertex 3.03199 28.5514 0
    endloop
  endfacet
  facet normal -0.740893 0.671623 0
    outer loop
      vertex 5.94975 30.3003 0
      vertex 6.41107 30.8092 4.5
      vertex 6.41107 30.8092 0
    endloop
  endfacet
  facet normal -0.740893 0.671623 0
    outer loop
      vertex 6.41107 30.8092 4.5
      vertex 5.94975 30.3003 0
      vertex 5.94975 30.3003 4.5
    endloop
  endfacet
  facet normal -0.671614 0.740901 0
    outer loop
      vertex 5.94975 30.3003 0
      vertex 5.44075 29.8389 4.5
      vertex 5.94975 30.3003 4.5
    endloop
  endfacet
  facet normal -0.671614 0.740901 0
    outer loop
      vertex 5.44075 29.8389 4.5
      vertex 5.94975 30.3003 0
      vertex 5.44075 29.8389 0
    endloop
  endfacet
  facet normal -0.514147 0.857702 0
    outer loop
      vertex 4.88899 29.4297 0
      vertex 4.29978 29.0765 4.5
      vertex 4.88899 29.4297 4.5
    endloop
  endfacet
  facet normal -0.514147 0.857702 0
    outer loop
      vertex 4.29978 29.0765 4.5
      vertex 4.88899 29.4297 0
      vertex 4.29978 29.0765 0
    endloop
  endfacet
  facet normal 0.242961 0.970036 -0
    outer loop
      vertex -0.365632 28.3845 0
      vertex -1.03199 28.5514 4.5
      vertex -0.365632 28.3845 4.5
    endloop
  endfacet
  facet normal 0.242961 0.970036 0
    outer loop
      vertex -1.03199 28.5514 4.5
      vertex -0.365632 28.3845 0
      vertex -1.03199 28.5514 0
    endloop
  endfacet
  facet normal 0.427542 0.903996 -0
    outer loop
      vertex -1.67878 28.7828 0
      vertex -2.29978 29.0765 4.5
      vertex -1.67878 28.7828 4.5
    endloop
  endfacet
  facet normal 0.427542 0.903996 0
    outer loop
      vertex -2.29978 29.0765 4.5
      vertex -1.67878 28.7828 0
      vertex -2.29978 29.0765 0
    endloop
  endfacet
  facet normal 0.941548 0.336879 0
    outer loop
      vertex -5.46716 32.5712 4.5
      vertex -5.69858 33.218 0
      vertex -5.69858 33.218 4.5
    endloop
  endfacet
  facet normal 0.941548 0.336879 0
    outer loop
      vertex -5.69858 33.218 0
      vertex -5.46716 32.5712 4.5
      vertex -5.46716 32.5712 0
    endloop
  endfacet
  facet normal 0.989177 0.146724 0
    outer loop
      vertex -5.8655 33.8844 4.5
      vertex -5.96629 34.5639 0
      vertex -5.96629 34.5639 4.5
    endloop
  endfacet
  facet normal 0.989177 0.146724 0
    outer loop
      vertex -5.96629 34.5639 0
      vertex -5.8655 33.8844 4.5
      vertex -5.8655 33.8844 0
    endloop
  endfacet
  facet normal 0.740893 0.671623 0
    outer loop
      vertex -3.94975 30.3003 4.5
      vertex -4.41107 30.8092 0
      vertex -4.41107 30.8092 4.5
    endloop
  endfacet
  facet normal 0.740893 0.671623 0
    outer loop
      vertex -4.41107 30.8092 0
      vertex -3.94975 30.3003 4.5
      vertex -3.94975 30.3003 0
    endloop
  endfacet
  facet normal 0.857724 0.51411 0
    outer loop
      vertex -4.82029 31.361 4.5
      vertex -5.17345 31.9502 0
      vertex -5.17345 31.9502 4.5
    endloop
  endfacet
  facet normal 0.857724 0.51411 0
    outer loop
      vertex -5.17345 31.9502 0
      vertex -4.82029 31.361 4.5
      vertex -4.82029 31.361 0
    endloop
  endfacet
  facet normal 0.998795 0.0490736 0
    outer loop
      vertex -5.96629 34.5639 4.5
      vertex -6 35.25 0
      vertex -6 35.25 4.5
    endloop
  endfacet
  facet normal 0.998795 0.0490736 0
    outer loop
      vertex -6 35.25 0
      vertex -5.96629 34.5639 4.5
      vertex -5.96629 34.5639 0
    endloop
  endfacet
  facet normal -0.989177 0.146724 0
    outer loop
      vertex 7.8655 33.8844 0
      vertex 7.96629 34.5639 4.5
      vertex 7.96629 34.5639 0
    endloop
  endfacet
  facet normal -0.989177 0.146724 0
    outer loop
      vertex 7.96629 34.5639 4.5
      vertex 7.8655 33.8844 0
      vertex 7.8655 33.8844 4.5
    endloop
  endfacet
  facet normal -0.24296 0.970036 0
    outer loop
      vertex 3.03199 28.5514 0
      vertex 2.36563 28.3845 4.5
      vertex 3.03199 28.5514 4.5
    endloop
  endfacet
  facet normal -0.24296 0.970036 0
    outer loop
      vertex 2.36563 28.3845 4.5
      vertex 3.03199 28.5514 0
      vertex 2.36563 28.3845 0
    endloop
  endfacet
  facet normal -0.427542 0.903996 0
    outer loop
      vertex 4.29978 29.0765 0
      vertex 3.67878 28.7828 4.5
      vertex 4.29978 29.0765 4.5
    endloop
  endfacet
  facet normal -0.427542 0.903996 0
    outer loop
      vertex 3.67878 28.7828 4.5
      vertex 4.29978 29.0765 0
      vertex 3.67878 28.7828 0
    endloop
  endfacet
  facet normal -0.595687 0.803217 0
    outer loop
      vertex 5.44075 29.8389 0
      vertex 4.88899 29.4297 4.5
      vertex 5.44075 29.8389 4.5
    endloop
  endfacet
  facet normal -0.595687 0.803217 0
    outer loop
      vertex 4.88899 29.4297 4.5
      vertex 5.44075 29.8389 0
      vertex 4.88899 29.4297 0
    endloop
  endfacet
  facet normal -0.0490576 0.998796 0
    outer loop
      vertex 1.68612 28.2837 0
      vertex 1 28.25 4.5
      vertex 1.68612 28.2837 4.5
    endloop
  endfacet
  facet normal -0.0490576 0.998796 0
    outer loop
      vertex 1 28.25 4.5
      vertex 1.68612 28.2837 0
      vertex 1 28.25 0
    endloop
  endfacet
  facet normal 0.146736 0.989176 -0
    outer loop
      vertex 0.31388 28.2837 0
      vertex -0.365632 28.3845 4.5
      vertex 0.31388 28.2837 4.5
    endloop
  endfacet
  facet normal 0.146736 0.989176 0
    outer loop
      vertex -0.365632 28.3845 4.5
      vertex 0.31388 28.2837 0
      vertex -0.365632 28.3845 0
    endloop
  endfacet
  facet normal 0.514147 0.857702 -0
    outer loop
      vertex -2.29978 29.0765 0
      vertex -2.88899 29.4297 4.5
      vertex -2.29978 29.0765 4.5
    endloop
  endfacet
  facet normal 0.514147 0.857702 0
    outer loop
      vertex -2.88899 29.4297 4.5
      vertex -2.29978 29.0765 0
      vertex -2.88899 29.4297 0
    endloop
  endfacet
  facet normal 0.90399 0.427554 0
    outer loop
      vertex -5.17345 31.9502 4.5
      vertex -5.46716 32.5712 0
      vertex -5.46716 32.5712 4.5
    endloop
  endfacet
  facet normal 0.90399 0.427554 0
    outer loop
      vertex -5.46716 32.5712 0
      vertex -5.17345 31.9502 4.5
      vertex -5.17345 31.9502 0
    endloop
  endfacet
  facet normal 0.970033 0.242974 0
    outer loop
      vertex -5.69858 33.218 4.5
      vertex -5.8655 33.8844 0
      vertex -5.8655 33.8844 4.5
    endloop
  endfacet
  facet normal 0.970033 0.242974 0
    outer loop
      vertex -5.8655 33.8844 0
      vertex -5.69858 33.218 4.5
      vertex -5.69858 33.218 0
    endloop
  endfacet
  facet normal 0.803223 0.595678 0
    outer loop
      vertex -4.41107 30.8092 4.5
      vertex -4.82029 31.361 0
      vertex -4.82029 31.361 4.5
    endloop
  endfacet
  facet normal 0.803223 0.595678 0
    outer loop
      vertex -4.82029 31.361 0
      vertex -4.41107 30.8092 4.5
      vertex -4.41107 30.8092 0
    endloop
  endfacet
  facet normal 0.671614 0.740901 -0
    outer loop
      vertex -3.44075 29.8389 0
      vertex -3.94975 30.3003 4.5
      vertex -3.44075 29.8389 4.5
    endloop
  endfacet
  facet normal 0.671614 0.740901 0
    outer loop
      vertex -3.94975 30.3003 4.5
      vertex -3.44075 29.8389 0
      vertex -3.94975 30.3003 0
    endloop
  endfacet
  facet normal -0.970033 0.242974 0
    outer loop
      vertex 7.69858 33.218 0
      vertex 7.8655 33.8844 4.5
      vertex 7.8655 33.8844 0
    endloop
  endfacet
  facet normal -0.970033 0.242974 0
    outer loop
      vertex 7.8655 33.8844 4.5
      vertex 7.69858 33.218 0
      vertex 7.69858 33.218 4.5
    endloop
  endfacet
  facet normal -0.857724 0.51411 0
    outer loop
      vertex 6.82029 31.361 0
      vertex 7.17345 31.9502 4.5
      vertex 7.17345 31.9502 0
    endloop
  endfacet
  facet normal -0.857724 0.51411 0
    outer loop
      vertex 7.17345 31.9502 4.5
      vertex 6.82029 31.361 0
      vertex 6.82029 31.361 4.5
    endloop
  endfacet
  facet normal -0.803223 0.595678 0
    outer loop
      vertex 6.41107 30.8092 0
      vertex 6.82029 31.361 4.5
      vertex 6.82029 31.361 0
    endloop
  endfacet
  facet normal -0.803223 0.595678 0
    outer loop
      vertex 6.82029 31.361 4.5
      vertex 6.41107 30.8092 0
      vertex 6.41107 30.8092 4.5
    endloop
  endfacet
  facet normal 0 -1 0
    outer loop
      vertex -10.5 25.9 0
      vertex 12.5 25.9 4.5
      vertex -10.5 25.9 4.5
    endloop
  endfacet
  facet normal 0 -1 -0
    outer loop
      vertex 12.5 25.9 4.5
      vertex -10.5 25.9 0
      vertex 12.5 25.9 0
    endloop
  endfacet
  facet normal 1 0 0
    outer loop
      vertex -10.5 22 3
      vertex -10.5 25.9 4.5
      vertex -10.5 22 4.5
    endloop
  endfacet
  facet normal 1 0 0
    outer loop
      vertex -10.5 25.9 4.5
      vertex -10.5 22 3
      vertex -10.5 25.9 0
    endloop
  endfacet
  facet normal 1 0 0
    outer loop
      vertex -10.5 21.9 0
      vertex -10.5 22 3
      vertex -10.5 21.9 3
    endloop
  endfacet
  facet normal 1 0 0
    outer loop
      vertex -10.5 22 3
      vertex -10.5 21.9 0
      vertex -10.5 25.9 0
    endloop
  endfacet
  facet normal 0 1 -0
    outer loop
      vertex 12.5 21.9 0
      vertex -10.5 21.9 3
      vertex 12.5 21.9 3
    endloop
  endfacet
  facet normal 0 1 0
    outer loop
      vertex -10.5 21.9 3
      vertex 12.5 21.9 0
      vertex -10.5 21.9 0
    endloop
  endfacet
  facet normal -1 0 0
    outer loop
      vertex 12.5 25.9 0
      vertex 12.5 22 3
      vertex 12.5 25.9 4.5
    endloop
  endfacet
  facet normal -1 0 0
    outer loop
      vertex 12.5 21.9 0
      vertex 12.5 22 3
      vertex 12.5 25.9 0
    endloop
  endfacet
  facet normal -1 -0 0
    outer loop
      vertex 12.5 22 3
      vertex 12.5 21.9 0
      vertex 12.5 21.9 3
    endloop
  endfacet
  facet normal -1 -0 0
    outer loop
      vertex 12.5 25.9 4.5
      vertex 12.5 22 3
      vertex 12.5 22 4.5
    endloop
  endfacet
  facet normal 0 -1 0
    outer loop
      vertex -10.5 48.6 0
      vertex 12.5 48.6 3
      vertex -10.5 48.6 3
    endloop
  endfacet
  facet normal 0 -1 -0
    outer loop
      vertex 12.5 48.6 3
      vertex -10.5 48.6 0
      vertex 12.5 48.6 0
    endloop
  endfacet
  facet normal 0 1 -0
    outer loop
      vertex 12.5 44.6 0
      vertex -10.5 44.6 4.5
      vertex 12.5 44.6 4.5
    endloop
  endfacet
  facet normal 0 1 0
    outer loop
      vertex -10.5 44.6 4.5
      vertex 12.5 44.6 0
      vertex -10.5 44.6 0
    endloop
  endfacet
  facet normal -1 0 0
    outer loop
      vertex 12.5 48.6 0
      vertex 12.5 48.5 3
      vertex 12.5 48.6 3
    endloop
  endfacet
  facet normal -1 0 0
    outer loop
      vertex 12.5 44.6 0
      vertex 12.5 48.5 3
      vertex 12.5 48.6 0
    endloop
  endfacet
  facet normal -1 0 0
    outer loop
      vertex 12.5 44.6 4.5
      vertex 12.5 48.5 3
      vertex 12.5 44.6 0
    endloop
  endfacet
  facet normal -1 0 0
    outer loop
      vertex 12.5 48.5 3
      vertex 12.5 44.6 4.5
      vertex 12.5 48.5 4.5
    endloop
  endfacet
  facet normal 1 0 0
    outer loop
      vertex -10.5 48.5 4.5
      vertex -10.5 44.6 4.5
      vertex -10.5 48.5 3
    endloop
  endfacet
  facet normal 1 -0 0
    outer loop
      vertex -10.5 48.5 3
      vertex -10.5 48.6 0
      vertex -10.5 48.6 3
    endloop
  endfacet
  facet normal 1 0 0
    outer loop
      vertex -10.5 44.6 0
      vertex -10.5 48.5 3
      vertex -10.5 44.6 4.5
    endloop
  endfacet
  facet normal 1 0 0
    outer loop
      vertex -10.5 48.5 3
      vertex -10.5 44.6 0
      vertex -10.5 48.6 0
    endloop
  endfacet
  facet normal -1 0 0
    outer loop
      vertex -10 30 0.75
      vertex -10 40 4.5
      vertex -10 40 0.75
    endloop
  endfacet
  facet normal -1 -0 0
    outer loop
      vertex -10 40 4.5
      vertex -10 30 0.75
      vertex -10 30 4.5
    endloop
  endfacet
  facet normal 0 -1 0
    outer loop
      vertex -19.25 40 3
      vertex -19.25 40 0.75
      vertex -17.25 40 3
    endloop
  endfacet
  facet normal 0 -1 0
    outer loop
      vertex -17.25 40 3
      vertex -10 40 4.5
      vertex -17.25 40 4.5
    endloop
  endfacet
  facet normal 0 -1 0
    outer loop
      vertex -10 40 0.75
      vertex -17.25 40 3
      vertex -19.25 40 0.75
    endloop
  endfacet
  facet normal 0 -1 0
    outer loop
      vertex -17.25 40 3
      vertex -10 40 0.75
      vertex -10 40 4.5
    endloop
  endfacet
  facet normal -0 0 1
    outer loop
      vertex -19.25 40 0.75
      vertex -10 30 0.75
      vertex -10 40 0.75
    endloop
  endfacet
  facet normal 0 0 1
    outer loop
      vertex -10 30 0.75
      vertex -19.25 40 0.75
      vertex -19.25 30 0.75
    endloop
  endfacet
  facet normal 0 1 0
    outer loop
      vertex -10 30 4.5
      vertex -17.25 30 3
      vertex -17.25 30 4.5
    endloop
  endfacet
  facet normal 0 1 -0
    outer loop
      vertex -10 30 0.75
      vertex -17.25 30 3
      vertex -10 30 4.5
    endloop
  endfacet
  facet normal 0 1 0
    outer loop
      vertex -19.25 30 0.75
      vertex -17.25 30 3
      vertex -10 30 0.75
    endloop
  endfacet
  facet normal 0 1 0
    outer loop
      vertex -17.25 30 3
      vertex -19.25 30 0.75
      vertex -19.25 30 3
    endloop
  endfacet
endsolid OpenSCAD_Model
