solid OpenSCAD_Model
  facet normal -1 0 0
    outer loop
      vertex 32.1 11.74 0
      vertex 32.1 21.76 6.5
      vertex 32.1 21.76 0
    endloop
  endfacet
  facet normal -1 -0 0
    outer loop
      vertex 32.1 21.76 6.5
      vertex 32.1 11.74 0
      vertex 32.1 11.74 6.5
    endloop
  endfacet
  facet normal -1 0 0
    outer loop
      vertex 32.1 23.76 0
      vertex 32.1 27.04 6.5
      vertex 32.1 27.04 0
    endloop
  endfacet
  facet normal -1 -0 0
    outer loop
      vertex 32.1 27.04 6.5
      vertex 32.1 23.76 0
      vertex 32.1 23.76 6.5
    endloop
  endfacet
  facet normal -1 0 0
    outer loop
      vertex 32.1 4.34 0
      vertex 32.1 8.74 6.5
      vertex 32.1 8.74 0
    endloop
  endfacet
  facet normal -1 -0 0
    outer loop
      vertex 32.1 8.74 6.5
      vertex 32.1 4.34 0
      vertex 32.1 4.34 6.5
    endloop
  endfacet
  facet normal 0 1 -0
    outer loop
      vertex 24.9629 4.34 6.4687
      vertex 8.9 4.34 6.5
      vertex 25.6 4.34 6.5
    endloop
  endfacet
  facet normal 0 1 -0
    outer loop
      vertex 24.3319 4.34 6.3751
      vertex 8.9 4.34 6.5
      vertex 24.9629 4.34 6.4687
    endloop
  endfacet
  facet normal 0 1 -0
    outer loop
      vertex 23.7132 4.34 6.22011
      vertex 8.9 4.34 6.5
      vertex 24.3319 4.34 6.3751
    endloop
  endfacet
  facet normal 0 1 -0
    outer loop
      vertex 23.1126 4.34 6.00522
      vertex 8.9 4.34 6.5
      vertex 23.7132 4.34 6.22011
    endloop
  endfacet
  facet normal 0 1 -0
    outer loop
      vertex 22.5359 4.34 5.73249
      vertex 8.9 4.34 6.5
      vertex 23.1126 4.34 6.00522
    endloop
  endfacet
  facet normal 0 1 -0
    outer loop
      vertex 21.9888 4.34 5.40455
      vertex 8.9 4.34 6.5
      vertex 22.5359 4.34 5.73249
    endloop
  endfacet
  facet normal 0 1 -0
    outer loop
      vertex 21.4764 4.34 5.02457
      vertex 8.9 4.34 6.5
      vertex 21.9888 4.34 5.40455
    endloop
  endfacet
  facet normal 0 1 -0
    outer loop
      vertex 21.0038 4.34 4.59619
      vertex 8.9 4.34 6.5
      vertex 21.4764 4.34 5.02457
    endloop
  endfacet
  facet normal 0 1 -0
    outer loop
      vertex 20.5754 4.34 4.12356
      vertex 8.9 4.34 6.5
      vertex 21.0038 4.34 4.59619
    endloop
  endfacet
  facet normal 0 1 0
    outer loop
      vertex 18.952 4.34 2.77164
      vertex 20.5754 4.34 4.12356
      vertex 20.1954 4.34 3.61121
    endloop
  endfacet
  facet normal 0 1 0
    outer loop
      vertex 19.5147 4.34 2.94236
      vertex 20.1954 4.34 3.61121
      vertex 19.8675 4.34 3.06408
    endloop
  endfacet
  facet normal 0 1 0
    outer loop
      vertex 19.8059 4.34 2.98555
      vertex 19.8675 4.34 3.06408
      vertex 19.831 4.34 2.98678
    endloop
  endfacet
  facet normal 0 1 0
    outer loop
      vertex 19.5147 4.34 2.94236
      vertex 19.8675 4.34 3.06408
      vertex 19.8059 4.34 2.98555
    endloop
  endfacet
  facet normal 0 1 0
    outer loop
      vertex 20.1954 4.34 3.61121
      vertex 19.5147 4.34 2.94236
      vertex 19.2291 4.34 2.87082
    endloop
  endfacet
  facet normal 0 1 0
    outer loop
      vertex 18.952 4.34 2.77164
      vertex 20.1954 4.34 3.61121
      vertex 19.2291 4.34 2.87082
    endloop
  endfacet
  facet normal 0 1 0
    outer loop
      vertex 20.5754 4.34 4.12356
      vertex 18.952 4.34 2.77164
      vertex 18.6858 4.34 2.64576
    endloop
  endfacet
  facet normal 0 1 0
    outer loop
      vertex 20.5754 4.34 4.12356
      vertex 18.6858 4.34 2.64576
      vertex 8.9 4.34 6.5
    endloop
  endfacet
  facet normal 0 1 -0
    outer loop
      vertex 18.4333 4.34 2.49441
      vertex 8.9 4.34 6.5
      vertex 18.6858 4.34 2.64576
    endloop
  endfacet
  facet normal 0 1 -0
    outer loop
      vertex 18.1968 4.34 2.31903
      vertex 8.9 4.34 6.5
      vertex 18.4333 4.34 2.49441
    endloop
  endfacet
  facet normal 0 1 -0
    outer loop
      vertex 17.9787 4.34 2.12132
      vertex 8.9 4.34 6.5
      vertex 18.1968 4.34 2.31903
    endloop
  endfacet
  facet normal 0 1 -0
    outer loop
      vertex 17.781 4.34 1.90318
      vertex 8.9 4.34 6.5
      vertex 17.9787 4.34 2.12132
    endloop
  endfacet
  facet normal 0 1 -0
    outer loop
      vertex 17.6056 4.34 1.66671
      vertex 8.9 4.34 6.5
      vertex 17.781 4.34 1.90318
    endloop
  endfacet
  facet normal 0 1 -0
    outer loop
      vertex 17.4542 4.34 1.41419
      vertex 8.9 4.34 6.5
      vertex 17.6056 4.34 1.66671
    endloop
  endfacet
  facet normal 0 1 -0
    outer loop
      vertex 17.3284 4.34 1.14805
      vertex 8.9 4.34 6.5
      vertex 17.4542 4.34 1.41419
    endloop
  endfacet
  facet normal 0 1 0
    outer loop
      vertex 8.9 4.34 0
      vertex 17.3284 4.34 1.14805
      vertex 17.2292 4.34 0.870854
    endloop
  endfacet
  facet normal 0 1 0
    outer loop
      vertex 8.9 4.34 0
      vertex 17.2292 4.34 0.870854
      vertex 17.1576 4.34 0.585272
    endloop
  endfacet
  facet normal 0 1 0
    outer loop
      vertex 8.9 4.34 0
      vertex 17.1576 4.34 0.585272
      vertex 17.1144 4.34 0.294052
    endloop
  endfacet
  facet normal 0 1 0
    outer loop
      vertex 8.9 4.34 0
      vertex 17.1144 4.34 0.294052
      vertex 17.1 4.34 0
    endloop
  endfacet
  facet normal 0 1 0
    outer loop
      vertex 17.3284 4.34 1.14805
      vertex 8.9 4.34 0
      vertex 8.9 4.34 6.5
    endloop
  endfacet
  facet normal 0 1 0
    outer loop
      vertex 32.1 4.34 6.5
      vertex 26.2371 4.34 6.4687
      vertex 25.6 4.34 6.5
    endloop
  endfacet
  facet normal 0 1 0
    outer loop
      vertex 32.1 4.34 6.5
      vertex 26.8681 4.34 6.3751
      vertex 26.2371 4.34 6.4687
    endloop
  endfacet
  facet normal 0 1 0
    outer loop
      vertex 32.1 4.34 6.5
      vertex 27.4869 4.34 6.22011
      vertex 26.8681 4.34 6.3751
    endloop
  endfacet
  facet normal 0 1 0
    outer loop
      vertex 32.1 4.34 6.5
      vertex 28.0874 4.34 6.00522
      vertex 27.4869 4.34 6.22011
    endloop
  endfacet
  facet normal 0 1 0
    outer loop
      vertex 32.1 4.34 6.5
      vertex 28.6641 4.34 5.73249
      vertex 28.0874 4.34 6.00522
    endloop
  endfacet
  facet normal 0 1 0
    outer loop
      vertex 32.1 4.34 6.5
      vertex 29.2112 4.34 5.40455
      vertex 28.6641 4.34 5.73249
    endloop
  endfacet
  facet normal 0 1 0
    outer loop
      vertex 32.1 4.34 6.5
      vertex 29.7236 4.34 5.02457
      vertex 29.2112 4.34 5.40455
    endloop
  endfacet
  facet normal 0 1 0
    outer loop
      vertex 32.1 4.34 6.5
      vertex 30.1962 4.34 4.59619
      vertex 29.7236 4.34 5.02457
    endloop
  endfacet
  facet normal 0 1 0
    outer loop
      vertex 32.1 4.34 6.5
      vertex 30.6246 4.34 4.12356
      vertex 30.1962 4.34 4.59619
    endloop
  endfacet
  facet normal 0 1 0
    outer loop
      vertex 32.1 4.34 6.5
      vertex 31.0046 4.34 3.61121
      vertex 30.6246 4.34 4.12356
    endloop
  endfacet
  facet normal 0 1 0
    outer loop
      vertex 32.1 4.34 6.5
      vertex 31.3325 4.34 3.06408
      vertex 31.0046 4.34 3.61121
    endloop
  endfacet
  facet normal 0 1 0
    outer loop
      vertex 32.1 4.34 6.5
      vertex 31.6052 4.34 2.48744
      vertex 31.3325 4.34 3.06408
    endloop
  endfacet
  facet normal 0 1 0
    outer loop
      vertex 32.1 4.34 6.5
      vertex 31.8201 4.34 1.88685
      vertex 31.6052 4.34 2.48744
    endloop
  endfacet
  facet normal 0 1 0
    outer loop
      vertex 32.1 4.34 6.5
      vertex 31.9751 4.34 1.26809
      vertex 31.8201 4.34 1.88685
    endloop
  endfacet
  facet normal 0 1 0
    outer loop
      vertex 32.1 4.34 6.5
      vertex 32.0687 4.34 0.637112
      vertex 31.9751 4.34 1.26809
    endloop
  endfacet
  facet normal -0 1 0
    outer loop
      vertex 32.0687 4.34 0.637112
      vertex 32.1 4.34 6.5
      vertex 32.1 4.34 0
    endloop
  endfacet
  facet normal 1 -0 0
    outer loop
      vertex 8.9 4.34 6.5
      vertex 8.9 8.74 0
      vertex 8.9 8.74 6.5
    endloop
  endfacet
  facet normal 1 0 0
    outer loop
      vertex 8.9 8.74 0
      vertex 8.9 4.34 6.5
      vertex 8.9 4.34 0
    endloop
  endfacet
  facet normal 1 -0 0
    outer loop
      vertex 8.9 11.74 6.5
      vertex 8.9 27.04 0
      vertex 8.9 27.04 6.5
    endloop
  endfacet
  facet normal 1 0 0
    outer loop
      vertex 8.9 27.04 0
      vertex 8.9 11.74 6.5
      vertex 8.9 11.74 0
    endloop
  endfacet
  facet normal 0 -1 0
    outer loop
      vertex 8.9 27.04 0
      vertex 32.1 27.04 6.5
      vertex 8.9 27.04 6.5
    endloop
  endfacet
  facet normal 0 -1 -0
    outer loop
      vertex 32.1 27.04 6.5
      vertex 8.9 27.04 0
      vertex 32.1 27.04 0
    endloop
  endfacet
  facet normal 0 0 -1
    outer loop
      vertex 4 8.74 6.5
      vertex 8.9 11.74 6.5
      vertex 8.9 8.74 6.5
    endloop
  endfacet
  facet normal -0 0 -1
    outer loop
      vertex 8.9 11.74 6.5
      vertex 4 8.74 6.5
      vertex 4 11.74 6.5
    endloop
  endfacet
  facet normal 0 0 -1
    outer loop
      vertex 25.6 4.34 6.5
      vertex 32.1 8.74 6.5
      vertex 32.1 4.34 6.5
    endloop
  endfacet
  facet normal -0 0 -1
    outer loop
      vertex 32.1 8.74 6.5
      vertex 25.6 4.34 6.5
      vertex 32.1 11.74 6.5
    endloop
  endfacet
  facet normal 0 0 -1
    outer loop
      vertex 8.9 11.74 6.5
      vertex 32.1 11.74 6.5
      vertex 25.6 4.34 6.5
    endloop
  endfacet
  facet normal 0 0 -1
    outer loop
      vertex 32.1 11.74 6.5
      vertex 8.9 11.74 6.5
      vertex 32.1 21.76 6.5
    endloop
  endfacet
  facet normal 0 0 -1
    outer loop
      vertex 8.9 27.04 6.5
      vertex 32.1 21.76 6.5
      vertex 8.9 11.74 6.5
    endloop
  endfacet
  facet normal 0 0 -1
    outer loop
      vertex 8.9 8.74 6.5
      vertex 25.6 4.34 6.5
      vertex 8.9 4.34 6.5
    endloop
  endfacet
  facet normal 0 0 -1
    outer loop
      vertex 8.9 11.74 6.5
      vertex 25.6 4.34 6.5
      vertex 8.9 8.74 6.5
    endloop
  endfacet
  facet normal 0 0 -1
    outer loop
      vertex 32.1 21.76 6.5
      vertex 8.9 27.04 6.5
      vertex 32.1 23.76 6.5
    endloop
  endfacet
  facet normal 0 0 -1
    outer loop
      vertex 32.1 23.76 6.5
      vertex 8.9 27.04 6.5
      vertex 32.1 27.04 6.5
    endloop
  endfacet
  facet normal 0 0 -1
    outer loop
      vertex 32.1 8.74 6.5
      vertex 37 11.74 6.5
      vertex 37 8.74 6.5
    endloop
  endfacet
  facet normal -0 0 -1
    outer loop
      vertex 37 11.74 6.5
      vertex 32.1 8.74 6.5
      vertex 32.1 11.74 6.5
    endloop
  endfacet
  facet normal 0 0 -1
    outer loop
      vertex 32.1 21.76 6.5
      vertex 40 23.76 6.5
      vertex 40 21.76 6.5
    endloop
  endfacet
  facet normal -0 0 -1
    outer loop
      vertex 40 23.76 6.5
      vertex 32.1 21.76 6.5
      vertex 32.1 23.76 6.5
    endloop
  endfacet
  facet normal -1 0 0
    outer loop
      vertex 37 8.74 0
      vertex 37 11.74 6.5
      vertex 37 11.74 0
    endloop
  endfacet
  facet normal -1 -0 0
    outer loop
      vertex 37 11.74 6.5
      vertex 37 8.74 0
      vertex 37 8.74 6.5
    endloop
  endfacet
  facet normal 0 1 -0
    outer loop
      vertex 8.9 8.74 0
      vertex 4 8.74 6.5
      vertex 8.9 8.74 6.5
    endloop
  endfacet
  facet normal 0 1 0
    outer loop
      vertex 4 8.74 6.5
      vertex 8.9 8.74 0
      vertex 4 8.74 0
    endloop
  endfacet
  facet normal 0 1 -0
    outer loop
      vertex 37 8.74 0
      vertex 32.1 8.74 6.5
      vertex 37 8.74 6.5
    endloop
  endfacet
  facet normal 0 1 0
    outer loop
      vertex 32.1 8.74 6.5
      vertex 37 8.74 0
      vertex 32.1 8.74 0
    endloop
  endfacet
  facet normal 1 -0 0
    outer loop
      vertex 4 8.74 6.5
      vertex 4 11.74 0
      vertex 4 11.74 6.5
    endloop
  endfacet
  facet normal 1 0 0
    outer loop
      vertex 4 11.74 0
      vertex 4 8.74 6.5
      vertex 4 8.74 0
    endloop
  endfacet
  facet normal 0 -1 0
    outer loop
      vertex 32.1 11.74 0
      vertex 37 11.74 6.5
      vertex 32.1 11.74 6.5
    endloop
  endfacet
  facet normal 0 -1 -0
    outer loop
      vertex 37 11.74 6.5
      vertex 32.1 11.74 0
      vertex 37 11.74 0
    endloop
  endfacet
  facet normal 0 -1 0
    outer loop
      vertex 4 11.74 0
      vertex 8.9 11.74 6.5
      vertex 4 11.74 6.5
    endloop
  endfacet
  facet normal 0 -1 -0
    outer loop
      vertex 8.9 11.74 6.5
      vertex 4 11.74 0
      vertex 8.9 11.74 0
    endloop
  endfacet
  facet normal 0.0490697 0 -0.998795
    outer loop
      vertex 24.9629 0 6.4687
      vertex 25.6 4.34 6.5
      vertex 25.6 0 6.5
    endloop
  endfacet
  facet normal 0.0490697 0 -0.998795
    outer loop
      vertex 25.6 4.34 6.5
      vertex 24.9629 0 6.4687
      vertex 24.9629 4.34 6.4687
    endloop
  endfacet
  facet normal -0.671594 0 -0.74092
    outer loop
      vertex 29.7236 0 5.02457
      vertex 30.1962 4.34 4.59619
      vertex 30.1962 0 4.59619
    endloop
  endfacet
  facet normal -0.671594 0 -0.74092
    outer loop
      vertex 30.1962 4.34 4.59619
      vertex 29.7236 0 5.02457
      vertex 29.7236 4.34 5.02457
    endloop
  endfacet
  facet normal -0.941541 0 -0.336897
    outer loop
      vertex 31.8201 0 1.88685
      vertex 31.6052 4.34 2.48744
      vertex 31.8201 4.34 1.88685
    endloop
  endfacet
  facet normal -0.941541 -0 -0.336897
    outer loop
      vertex 31.6052 4.34 2.48744
      vertex 31.8201 0 1.88685
      vertex 31.6052 0 2.48744
    endloop
  endfacet
  facet normal 0.904261 0 -0.42698
    outer loop
      vertex 19.8675 0 3.06408
      vertex 19.831 4.34 2.98678
      vertex 19.8675 4.34 3.06408
    endloop
  endfacet
  facet normal 0.904261 0 -0.42698
    outer loop
      vertex 19.831 4.34 2.98678
      vertex 19.8675 0 3.06408
      vertex 19.831 0 2.98678
    endloop
  endfacet
  facet normal 0.336879 0 -0.941548
    outer loop
      vertex 23.1126 0 6.00522
      vertex 23.7132 4.34 6.22011
      vertex 23.7132 0 6.22011
    endloop
  endfacet
  facet normal 0.336879 0 -0.941548
    outer loop
      vertex 23.7132 4.34 6.22011
      vertex 23.1126 0 6.00522
      vertex 23.1126 4.34 6.00522
    endloop
  endfacet
  facet normal 0.740925 0 -0.671587
    outer loop
      vertex 21.0038 0 4.59619
      vertex 20.5754 4.34 4.12356
      vertex 21.0038 4.34 4.59619
    endloop
  endfacet
  facet normal 0.740925 0 -0.671587
    outer loop
      vertex 20.5754 4.34 4.12356
      vertex 21.0038 0 4.59619
      vertex 20.5754 0 4.12356
    endloop
  endfacet
  facet normal -0.242963 0 -0.970035
    outer loop
      vertex 26.8681 0 6.3751
      vertex 27.4869 4.34 6.22011
      vertex 27.4869 0 6.22011
    endloop
  endfacet
  facet normal -0.242963 0 -0.970035
    outer loop
      vertex 27.4869 4.34 6.22011
      vertex 26.8681 0 6.3751
      vertex 26.8681 4.34 6.3751
    endloop
  endfacet
  facet normal -0.740925 0 -0.671587
    outer loop
      vertex 30.6246 0 4.12356
      vertex 30.1962 4.34 4.59619
      vertex 30.6246 4.34 4.12356
    endloop
  endfacet
  facet normal -0.740925 -0 -0.671587
    outer loop
      vertex 30.1962 4.34 4.59619
      vertex 30.6246 0 4.12356
      vertex 30.1962 0 4.59619
    endloop
  endfacet
  facet normal 0.14673 0 -0.989177
    outer loop
      vertex 24.3319 0 6.3751
      vertex 24.9629 4.34 6.4687
      vertex 24.9629 0 6.4687
    endloop
  endfacet
  facet normal 0.14673 0 -0.989177
    outer loop
      vertex 24.9629 4.34 6.4687
      vertex 24.3319 0 6.3751
      vertex 24.3319 4.34 6.3751
    endloop
  endfacet
  facet normal 0.514127 0 -0.857714
    outer loop
      vertex 21.9888 0 5.40455
      vertex 22.5359 4.34 5.73249
      vertex 22.5359 0 5.73249
    endloop
  endfacet
  facet normal 0.514127 0 -0.857714
    outer loop
      vertex 22.5359 4.34 5.73249
      vertex 21.9888 0 5.40455
      vertex 21.9888 4.34 5.40455
    endloop
  endfacet
  facet normal 0.671594 0 -0.74092
    outer loop
      vertex 21.0038 0 4.59619
      vertex 21.4764 4.34 5.02457
      vertex 21.4764 0 5.02457
    endloop
  endfacet
  facet normal 0.671594 0 -0.74092
    outer loop
      vertex 21.4764 4.34 5.02457
      vertex 21.0038 0 4.59619
      vertex 21.0038 4.34 4.59619
    endloop
  endfacet
  facet normal 0.595657 0 -0.803239
    outer loop
      vertex 21.4764 0 5.02457
      vertex 21.9888 4.34 5.40455
      vertex 21.9888 0 5.40455
    endloop
  endfacet
  facet normal 0.595657 0 -0.803239
    outer loop
      vertex 21.9888 4.34 5.40455
      vertex 21.4764 0 5.02457
      vertex 21.4764 4.34 5.02457
    endloop
  endfacet
  facet normal 0.803196 0 -0.595715
    outer loop
      vertex 20.5754 0 4.12356
      vertex 20.1954 4.34 3.61121
      vertex 20.5754 4.34 4.12356
    endloop
  endfacet
  facet normal 0.803196 0 -0.595715
    outer loop
      vertex 20.1954 4.34 3.61121
      vertex 20.5754 0 4.12356
      vertex 20.1954 0 3.61121
    endloop
  endfacet
  facet normal 0.857754 0 -0.51406
    outer loop
      vertex 20.1954 0 3.61121
      vertex 19.8675 4.34 3.06408
      vertex 20.1954 4.34 3.61121
    endloop
  endfacet
  facet normal 0.857754 0 -0.51406
    outer loop
      vertex 19.8675 4.34 3.06408
      vertex 20.1954 0 3.61121
      vertex 19.8675 0 3.06408
    endloop
  endfacet
  facet normal -0.595657 0 -0.803239
    outer loop
      vertex 29.2112 0 5.40455
      vertex 29.7236 4.34 5.02457
      vertex 29.7236 0 5.02457
    endloop
  endfacet
  facet normal -0.595657 0 -0.803239
    outer loop
      vertex 29.7236 4.34 5.02457
      vertex 29.2112 0 5.40455
      vertex 29.2112 4.34 5.40455
    endloop
  endfacet
  facet normal -0.514127 0 -0.857714
    outer loop
      vertex 28.6641 0 5.73249
      vertex 29.2112 4.34 5.40455
      vertex 29.2112 0 5.40455
    endloop
  endfacet
  facet normal -0.514127 0 -0.857714
    outer loop
      vertex 29.2112 4.34 5.40455
      vertex 28.6641 0 5.73249
      vertex 28.6641 4.34 5.73249
    endloop
  endfacet
  facet normal -0.427518 0 -0.904007
    outer loop
      vertex 28.0874 0 6.00522
      vertex 28.6641 4.34 5.73249
      vertex 28.6641 0 5.73249
    endloop
  endfacet
  facet normal -0.427518 0 -0.904007
    outer loop
      vertex 28.6641 4.34 5.73249
      vertex 28.0874 0 6.00522
      vertex 28.0874 4.34 6.00522
    endloop
  endfacet
  facet normal -0.0490697 0 -0.998795
    outer loop
      vertex 25.6 0 6.5
      vertex 26.2371 4.34 6.4687
      vertex 26.2371 0 6.4687
    endloop
  endfacet
  facet normal -0.0490697 0 -0.998795
    outer loop
      vertex 26.2371 4.34 6.4687
      vertex 25.6 0 6.5
      vertex 25.6 4.34 6.5
    endloop
  endfacet
  facet normal -0.857754 0 -0.51406
    outer loop
      vertex 31.3325 0 3.06408
      vertex 31.0046 4.34 3.61121
      vertex 31.3325 4.34 3.06408
    endloop
  endfacet
  facet normal -0.857754 -0 -0.51406
    outer loop
      vertex 31.0046 4.34 3.61121
      vertex 31.3325 0 3.06408
      vertex 31.0046 0 3.61121
    endloop
  endfacet
  facet normal -0.989176 0 -0.146735
    outer loop
      vertex 32.0687 0 0.637112
      vertex 31.9751 4.34 1.26809
      vertex 32.0687 4.34 0.637112
    endloop
  endfacet
  facet normal -0.989176 -0 -0.146735
    outer loop
      vertex 31.9751 4.34 1.26809
      vertex 32.0687 0 0.637112
      vertex 31.9751 0 1.26809
    endloop
  endfacet
  facet normal -0.998795 0 -0.0490688
    outer loop
      vertex 32.1 0 0
      vertex 32.0687 4.34 0.637112
      vertex 32.1 4.34 0
    endloop
  endfacet
  facet normal -0.998795 -0 -0.0490688
    outer loop
      vertex 32.0687 4.34 0.637112
      vertex 32.1 0 0
      vertex 32.0687 0 0.637112
    endloop
  endfacet
  facet normal 0.243 0 -0.970026
    outer loop
      vertex 23.7132 0 6.22011
      vertex 24.3319 4.34 6.3751
      vertex 24.3319 0 6.3751
    endloop
  endfacet
  facet normal 0.243 0 -0.970026
    outer loop
      vertex 24.3319 4.34 6.3751
      vertex 23.7132 0 6.22011
      vertex 23.7132 4.34 6.22011
    endloop
  endfacet
  facet normal 0.427518 0 -0.904007
    outer loop
      vertex 22.5359 0 5.73249
      vertex 23.1126 4.34 6.00522
      vertex 23.1126 0 6.00522
    endloop
  endfacet
  facet normal 0.427518 0 -0.904007
    outer loop
      vertex 23.1126 4.34 6.00522
      vertex 22.5359 0 5.73249
      vertex 22.5359 4.34 5.73249
    endloop
  endfacet
  facet normal -0.336928 0 -0.94153
    outer loop
      vertex 27.4869 0 6.22011
      vertex 28.0874 4.34 6.00522
      vertex 28.0874 0 6.00522
    endloop
  endfacet
  facet normal -0.336928 0 -0.94153
    outer loop
      vertex 28.0874 4.34 6.00522
      vertex 27.4869 0 6.22011
      vertex 27.4869 4.34 6.22011
    endloop
  endfacet
  facet normal -0.14673 0 -0.989177
    outer loop
      vertex 26.2371 0 6.4687
      vertex 26.8681 4.34 6.3751
      vertex 26.8681 0 6.3751
    endloop
  endfacet
  facet normal -0.14673 0 -0.989177
    outer loop
      vertex 26.8681 4.34 6.3751
      vertex 26.2371 0 6.4687
      vertex 26.2371 4.34 6.4687
    endloop
  endfacet
  facet normal -0.803196 0 -0.595715
    outer loop
      vertex 31.0046 0 3.61121
      vertex 30.6246 4.34 4.12356
      vertex 31.0046 4.34 3.61121
    endloop
  endfacet
  facet normal -0.803196 -0 -0.595715
    outer loop
      vertex 30.6246 4.34 4.12356
      vertex 31.0046 0 3.61121
      vertex 30.6246 0 4.12356
    endloop
  endfacet
  facet normal -0.904008 0 -0.427516
    outer loop
      vertex 31.6052 0 2.48744
      vertex 31.3325 4.34 3.06408
      vertex 31.6052 4.34 2.48744
    endloop
  endfacet
  facet normal -0.904008 -0 -0.427516
    outer loop
      vertex 31.3325 4.34 3.06408
      vertex 31.6052 0 2.48744
      vertex 31.3325 0 3.06408
    endloop
  endfacet
  facet normal -0.970028 0 -0.242993
    outer loop
      vertex 31.9751 0 1.26809
      vertex 31.8201 4.34 1.88685
      vertex 31.9751 4.34 1.26809
    endloop
  endfacet
  facet normal -0.970028 -0 -0.242993
    outer loop
      vertex 31.8201 4.34 1.88685
      vertex 31.9751 0 1.26809
      vertex 31.8201 0 1.88685
    endloop
  endfacet
  facet normal 0.904088 0 -0.427347
    outer loop
      vertex 17.4542 0 1.41419
      vertex 17.3284 4.34 1.14805
      vertex 17.4542 4.34 1.41419
    endloop
  endfacet
  facet normal 0.904088 0 -0.427347
    outer loop
      vertex 17.3284 4.34 1.14805
      vertex 17.4542 0 1.41419
      vertex 17.3284 0 1.14805
    endloop
  endfacet
  facet normal 0.336986 0 -0.94151
    outer loop
      vertex 18.952 0 2.77164
      vertex 19.2291 4.34 2.87082
      vertex 19.2291 0 2.87082
    endloop
  endfacet
  facet normal 0.336986 0 -0.94151
    outer loop
      vertex 19.2291 4.34 2.87082
      vertex 18.952 0 2.77164
      vertex 18.952 4.34 2.77164
    endloop
  endfacet
  facet normal 0.740969 0 -0.671539
    outer loop
      vertex 17.9787 0 2.12132
      vertex 17.781 4.34 1.90318
      vertex 17.9787 4.34 2.12132
    endloop
  endfacet
  facet normal 0.740969 0 -0.671539
    outer loop
      vertex 17.781 4.34 1.90318
      vertex 17.9787 0 2.12132
      vertex 17.781 0 1.90318
    endloop
  endfacet
  facet normal 0.969979 0 -0.243189
    outer loop
      vertex 17.2292 0 0.870854
      vertex 17.1576 4.34 0.585272
      vertex 17.2292 4.34 0.870854
    endloop
  endfacet
  facet normal 0.969979 0 -0.243189
    outer loop
      vertex 17.1576 4.34 0.585272
      vertex 17.2292 0 0.870854
      vertex 17.1576 0 0.585272
    endloop
  endfacet
  facet normal 0.146712 0 -0.989179
    outer loop
      vertex 19.5147 0 2.94236
      vertex 19.8059 4.34 2.98555
      vertex 19.8059 0 2.98555
    endloop
  endfacet
  facet normal 0.146712 0 -0.989179
    outer loop
      vertex 19.8059 4.34 2.98555
      vertex 19.5147 0 2.94236
      vertex 19.5147 4.34 2.94236
    endloop
  endfacet
  facet normal 0.514121 0 -0.857718
    outer loop
      vertex 18.4333 0 2.49441
      vertex 18.6858 4.34 2.64576
      vertex 18.6858 0 2.64576
    endloop
  endfacet
  facet normal 0.514121 0 -0.857718
    outer loop
      vertex 18.6858 4.34 2.64576
      vertex 18.4333 0 2.49441
      vertex 18.4333 4.34 2.49441
    endloop
  endfacet
  facet normal 0.671625 0 -0.740891
    outer loop
      vertex 17.9787 0 2.12132
      vertex 18.1968 4.34 2.31903
      vertex 18.1968 0 2.31903
    endloop
  endfacet
  facet normal 0.671625 0 -0.740891
    outer loop
      vertex 18.1968 4.34 2.31903
      vertex 17.9787 0 2.12132
      vertex 17.9787 4.34 2.12132
    endloop
  endfacet
  facet normal 0.803172 0 -0.595747
    outer loop
      vertex 17.781 0 1.90318
      vertex 17.6056 4.34 1.66671
      vertex 17.781 4.34 1.90318
    endloop
  endfacet
  facet normal 0.803172 0 -0.595747
    outer loop
      vertex 17.6056 4.34 1.66671
      vertex 17.781 0 1.90318
      vertex 17.6056 0 1.66671
    endloop
  endfacet
  facet normal 0.857661 0 -0.514216
    outer loop
      vertex 17.6056 0 1.66671
      vertex 17.4542 4.34 1.41419
      vertex 17.6056 4.34 1.66671
    endloop
  endfacet
  facet normal 0.857661 0 -0.514216
    outer loop
      vertex 17.4542 4.34 1.41419
      vertex 17.6056 0 1.66671
      vertex 17.4542 0 1.41419
    endloop
  endfacet
  facet normal 0.242983 0 -0.970031
    outer loop
      vertex 19.2291 0 2.87082
      vertex 19.5147 4.34 2.94236
      vertex 19.5147 0 2.94236
    endloop
  endfacet
  facet normal 0.242983 0 -0.970031
    outer loop
      vertex 19.5147 4.34 2.94236
      vertex 19.2291 0 2.87082
      vertex 19.2291 4.34 2.87082
    endloop
  endfacet
  facet normal 0.427491 0 -0.90402
    outer loop
      vertex 18.6858 0 2.64576
      vertex 18.952 4.34 2.77164
      vertex 18.952 0 2.77164
    endloop
  endfacet
  facet normal 0.427491 0 -0.90402
    outer loop
      vertex 18.952 4.34 2.77164
      vertex 18.6858 0 2.64576
      vertex 18.6858 4.34 2.64576
    endloop
  endfacet
  facet normal 0.595655 0 -0.803241
    outer loop
      vertex 18.1968 0 2.31903
      vertex 18.4333 4.34 2.49441
      vertex 18.4333 0 2.49441
    endloop
  endfacet
  facet normal 0.595655 0 -0.803241
    outer loop
      vertex 18.4333 4.34 2.49441
      vertex 18.1968 0 2.31903
      vertex 18.1968 4.34 2.31903
    endloop
  endfacet
  facet normal 0.941525 0 -0.336943
    outer loop
      vertex 17.3284 0 1.14805
      vertex 17.2292 4.34 0.870854
      vertex 17.3284 4.34 1.14805
    endloop
  endfacet
  facet normal 0.941525 0 -0.336943
    outer loop
      vertex 17.2292 4.34 0.870854
      vertex 17.3284 0 1.14805
      vertex 17.2292 0 0.870854
    endloop
  endfacet
  facet normal 0.989176 0 -0.146736
    outer loop
      vertex 17.1576 0 0.585272
      vertex 17.1144 4.34 0.294052
      vertex 17.1576 4.34 0.585272
    endloop
  endfacet
  facet normal 0.989176 0 -0.146736
    outer loop
      vertex 17.1144 4.34 0.294052
      vertex 17.1576 0 0.585272
      vertex 17.1144 0 0.294052
    endloop
  endfacet
  facet normal 0.998803 0 -0.0489123
    outer loop
      vertex 17.1144 0 0.294052
      vertex 17.1 4.34 0
      vertex 17.1144 4.34 0.294052
    endloop
  endfacet
  facet normal 0.998803 0 -0.0489123
    outer loop
      vertex 17.1 4.34 0
      vertex 17.1144 0 0.294052
      vertex 17.1 0 0
    endloop
  endfacet
  facet normal 0.0489453 0 -0.998801
    outer loop
      vertex 19.8059 0 2.98555
      vertex 19.831 4.34 2.98678
      vertex 19.831 0 2.98678
    endloop
  endfacet
  facet normal 0.0489453 0 -0.998801
    outer loop
      vertex 19.831 4.34 2.98678
      vertex 19.8059 0 2.98555
      vertex 19.8059 4.34 2.98555
    endloop
  endfacet
  facet normal 0 1 -0
    outer loop
      vertex 40 21.76 0
      vertex 32.1 21.76 6.5
      vertex 40 21.76 6.5
    endloop
  endfacet
  facet normal 0 1 0
    outer loop
      vertex 32.1 21.76 6.5
      vertex 40 21.76 0
      vertex 32.1 21.76 0
    endloop
  endfacet
  facet normal 0 -1 0
    outer loop
      vertex 32.1 23.76 0
      vertex 40 23.76 6.5
      vertex 32.1 23.76 6.5
    endloop
  endfacet
  facet normal 0 -1 -0
    outer loop
      vertex 40 23.76 6.5
      vertex 32.1 23.76 0
      vertex 40 23.76 0
    endloop
  endfacet
  facet normal -1 0 0
    outer loop
      vertex 0 0 0
      vertex 0 40 8.5
      vertex 0 40 0
    endloop
  endfacet
  facet normal -1 -0 0
    outer loop
      vertex 0 40 8.5
      vertex 0 0 0
      vertex 0 0 8.5
    endloop
  endfacet
  facet normal 0 0 1
    outer loop
      vertex 25.9663 20.6861 8.5
      vertex 25.9663 19.3139 8.5
      vertex 26 20 8.5
    endloop
  endfacet
  facet normal 0 0 1
    outer loop
      vertex 25.8655 21.3656 8.5
      vertex 25.9663 19.3139 8.5
      vertex 25.9663 20.6861 8.5
    endloop
  endfacet
  facet normal 0 0 1
    outer loop
      vertex 25.8655 21.3656 8.5
      vertex 25.8655 18.6344 8.5
      vertex 25.9663 19.3139 8.5
    endloop
  endfacet
  facet normal 0 0 1
    outer loop
      vertex 25.6986 22.032 8.5
      vertex 25.8655 18.6344 8.5
      vertex 25.8655 21.3656 8.5
    endloop
  endfacet
  facet normal 0 0 1
    outer loop
      vertex 25.6986 22.032 8.5
      vertex 25.6986 17.968 8.5
      vertex 25.8655 18.6344 8.5
    endloop
  endfacet
  facet normal 0 0 1
    outer loop
      vertex 25.4672 22.6788 8.5
      vertex 25.6986 17.968 8.5
      vertex 25.6986 22.032 8.5
    endloop
  endfacet
  facet normal 0 0 1
    outer loop
      vertex 25.4672 22.6788 8.5
      vertex 25.4672 17.3212 8.5
      vertex 25.6986 17.968 8.5
    endloop
  endfacet
  facet normal 0 0 1
    outer loop
      vertex 25.1734 23.2998 8.5
      vertex 25.4672 17.3212 8.5
      vertex 25.4672 22.6788 8.5
    endloop
  endfacet
  facet normal 0 0 1
    outer loop
      vertex 25.1734 23.2998 8.5
      vertex 25.1734 16.7002 8.5
      vertex 25.4672 17.3212 8.5
    endloop
  endfacet
  facet normal 0 0 1
    outer loop
      vertex 24.8203 23.889 8.5
      vertex 25.1734 16.7002 8.5
      vertex 25.1734 23.2998 8.5
    endloop
  endfacet
  facet normal 0 0 1
    outer loop
      vertex 24.8203 23.889 8.5
      vertex 24.8203 16.111 8.5
      vertex 25.1734 16.7002 8.5
    endloop
  endfacet
  facet normal 0 0 1
    outer loop
      vertex 24.4111 24.4408 8.5
      vertex 24.8203 16.111 8.5
      vertex 24.8203 23.889 8.5
    endloop
  endfacet
  facet normal 0 0 1
    outer loop
      vertex 24.4111 24.4408 8.5
      vertex 24.4111 15.5592 8.5
      vertex 24.8203 16.111 8.5
    endloop
  endfacet
  facet normal 0 0 1
    outer loop
      vertex 23.9497 24.9497 8.5
      vertex 24.4111 15.5592 8.5
      vertex 24.4111 24.4408 8.5
    endloop
  endfacet
  facet normal 0 0 1
    outer loop
      vertex 23.9497 24.9497 8.5
      vertex 23.9497 15.0503 8.5
      vertex 24.4111 15.5592 8.5
    endloop
  endfacet
  facet normal 0 0 1
    outer loop
      vertex 23.4408 25.4111 8.5
      vertex 23.9497 15.0503 8.5
      vertex 23.9497 24.9497 8.5
    endloop
  endfacet
  facet normal 0 0 1
    outer loop
      vertex 23.4408 25.4111 8.5
      vertex 23.4408 14.5889 8.5
      vertex 23.9497 15.0503 8.5
    endloop
  endfacet
  facet normal 0 0 1
    outer loop
      vertex 22.889 25.8203 8.5
      vertex 23.4408 14.5889 8.5
      vertex 23.4408 25.4111 8.5
    endloop
  endfacet
  facet normal 0 0 1
    outer loop
      vertex 22.889 25.8203 8.5
      vertex 22.889 14.1797 8.5
      vertex 23.4408 14.5889 8.5
    endloop
  endfacet
  facet normal 0 0 1
    outer loop
      vertex 22.2998 26.1734 8.5
      vertex 22.889 14.1797 8.5
      vertex 22.889 25.8203 8.5
    endloop
  endfacet
  facet normal 0 0 1
    outer loop
      vertex 22.2998 26.1734 8.5
      vertex 22.2998 13.8266 8.5
      vertex 22.889 14.1797 8.5
    endloop
  endfacet
  facet normal 0 0 1
    outer loop
      vertex 21.6788 26.4672 8.5
      vertex 22.2998 13.8266 8.5
      vertex 22.2998 26.1734 8.5
    endloop
  endfacet
  facet normal 0 0 1
    outer loop
      vertex 21.6788 26.4672 8.5
      vertex 21.6788 13.5328 8.5
      vertex 22.2998 13.8266 8.5
    endloop
  endfacet
  facet normal 0 0 1
    outer loop
      vertex 21.032 26.6986 8.5
      vertex 21.6788 13.5328 8.5
      vertex 21.6788 26.4672 8.5
    endloop
  endfacet
  facet normal 0 0 1
    outer loop
      vertex 21.032 26.6986 8.5
      vertex 21.032 13.3014 8.5
      vertex 21.6788 13.5328 8.5
    endloop
  endfacet
  facet normal 0 0 1
    outer loop
      vertex 20.3656 26.8655 8.5
      vertex 21.032 13.3014 8.5
      vertex 21.032 26.6986 8.5
    endloop
  endfacet
  facet normal 0 0 1
    outer loop
      vertex 20.3656 26.8655 8.5
      vertex 20.3656 13.1345 8.5
      vertex 21.032 13.3014 8.5
    endloop
  endfacet
  facet normal 0 0 1
    outer loop
      vertex 19.6861 26.9663 8.5
      vertex 20.3656 13.1345 8.5
      vertex 20.3656 26.8655 8.5
    endloop
  endfacet
  facet normal 0 0 1
    outer loop
      vertex 19.6861 26.9663 8.5
      vertex 19.6861 13.0337 8.5
      vertex 20.3656 13.1345 8.5
    endloop
  endfacet
  facet normal 0 0 1
    outer loop
      vertex 19 27 8.5
      vertex 19.6861 13.0337 8.5
      vertex 19.6861 26.9663 8.5
    endloop
  endfacet
  facet normal 0 0 1
    outer loop
      vertex 19 27 8.5
      vertex 19 13 8.5
      vertex 19.6861 13.0337 8.5
    endloop
  endfacet
  facet normal -0 0 1
    outer loop
      vertex 18.3139 26.9663 8.5
      vertex 19 13 8.5
      vertex 19 27 8.5
    endloop
  endfacet
  facet normal 0 0 1
    outer loop
      vertex 18.3139 26.9663 8.5
      vertex 18.3139 13.0337 8.5
      vertex 19 13 8.5
    endloop
  endfacet
  facet normal -0 0 1
    outer loop
      vertex 17.6344 26.8655 8.5
      vertex 18.3139 13.0337 8.5
      vertex 18.3139 26.9663 8.5
    endloop
  endfacet
  facet normal 0 0 1
    outer loop
      vertex 17.6344 26.8655 8.5
      vertex 17.6344 13.1345 8.5
      vertex 18.3139 13.0337 8.5
    endloop
  endfacet
  facet normal -0 0 1
    outer loop
      vertex 16.968 26.6986 8.5
      vertex 17.6344 13.1345 8.5
      vertex 17.6344 26.8655 8.5
    endloop
  endfacet
  facet normal 0 0 1
    outer loop
      vertex 16.968 26.6986 8.5
      vertex 16.968 13.3014 8.5
      vertex 17.6344 13.1345 8.5
    endloop
  endfacet
  facet normal -0 0 1
    outer loop
      vertex 16.3212 26.4672 8.5
      vertex 16.968 13.3014 8.5
      vertex 16.968 26.6986 8.5
    endloop
  endfacet
  facet normal 0 0 1
    outer loop
      vertex 16.3212 26.4672 8.5
      vertex 16.3212 13.5328 8.5
      vertex 16.968 13.3014 8.5
    endloop
  endfacet
  facet normal -0 0 1
    outer loop
      vertex 15.7002 26.1734 8.5
      vertex 16.3212 13.5328 8.5
      vertex 16.3212 26.4672 8.5
    endloop
  endfacet
  facet normal 0 0 1
    outer loop
      vertex 15.7002 26.1734 8.5
      vertex 15.7002 13.8266 8.5
      vertex 16.3212 13.5328 8.5
    endloop
  endfacet
  facet normal -0 0 1
    outer loop
      vertex 15.111 25.8203 8.5
      vertex 15.7002 13.8266 8.5
      vertex 15.7002 26.1734 8.5
    endloop
  endfacet
  facet normal 0 0 1
    outer loop
      vertex 15.111 25.8203 8.5
      vertex 15.111 14.1797 8.5
      vertex 15.7002 13.8266 8.5
    endloop
  endfacet
  facet normal -0 0 1
    outer loop
      vertex 14.5592 25.4111 8.5
      vertex 15.111 14.1797 8.5
      vertex 15.111 25.8203 8.5
    endloop
  endfacet
  facet normal 0 0 1
    outer loop
      vertex 14.5592 25.4111 8.5
      vertex 14.5592 14.5889 8.5
      vertex 15.111 14.1797 8.5
    endloop
  endfacet
  facet normal -0 0 1
    outer loop
      vertex 14.0503 24.9497 8.5
      vertex 14.5592 14.5889 8.5
      vertex 14.5592 25.4111 8.5
    endloop
  endfacet
  facet normal 0 0 1
    outer loop
      vertex 14.0503 24.9497 8.5
      vertex 14.0503 15.0503 8.5
      vertex 14.5592 14.5889 8.5
    endloop
  endfacet
  facet normal -0 0 1
    outer loop
      vertex 13.5889 24.4408 8.5
      vertex 14.0503 15.0503 8.5
      vertex 14.0503 24.9497 8.5
    endloop
  endfacet
  facet normal 0 0 1
    outer loop
      vertex 13.5889 24.4408 8.5
      vertex 13.5889 15.5592 8.5
      vertex 14.0503 15.0503 8.5
    endloop
  endfacet
  facet normal -0 0 1
    outer loop
      vertex 13.1797 23.889 8.5
      vertex 13.5889 15.5592 8.5
      vertex 13.5889 24.4408 8.5
    endloop
  endfacet
  facet normal 0 0 1
    outer loop
      vertex 13.1797 23.889 8.5
      vertex 13.1797 16.111 8.5
      vertex 13.5889 15.5592 8.5
    endloop
  endfacet
  facet normal -0 0 1
    outer loop
      vertex 12.8266 23.2998 8.5
      vertex 13.1797 16.111 8.5
      vertex 13.1797 23.889 8.5
    endloop
  endfacet
  facet normal 0 0 1
    outer loop
      vertex 12.8266 23.2998 8.5
      vertex 12.8266 16.7002 8.5
      vertex 13.1797 16.111 8.5
    endloop
  endfacet
  facet normal -0 0 1
    outer loop
      vertex 12.5328 22.6788 8.5
      vertex 12.8266 16.7002 8.5
      vertex 12.8266 23.2998 8.5
    endloop
  endfacet
  facet normal 0 0 1
    outer loop
      vertex 12.5328 22.6788 8.5
      vertex 12.5328 17.3212 8.5
      vertex 12.8266 16.7002 8.5
    endloop
  endfacet
  facet normal -0 0 1
    outer loop
      vertex 12.3014 22.032 8.5
      vertex 12.5328 17.3212 8.5
      vertex 12.5328 22.6788 8.5
    endloop
  endfacet
  facet normal 0 0 1
    outer loop
      vertex 12.3014 22.032 8.5
      vertex 12.3014 17.968 8.5
      vertex 12.5328 17.3212 8.5
    endloop
  endfacet
  facet normal -0 0 1
    outer loop
      vertex 12.1345 21.3656 8.5
      vertex 12.3014 17.968 8.5
      vertex 12.3014 22.032 8.5
    endloop
  endfacet
  facet normal 0 0 1
    outer loop
      vertex 12.1345 21.3656 8.5
      vertex 12.1345 18.6344 8.5
      vertex 12.3014 17.968 8.5
    endloop
  endfacet
  facet normal -0 0 1
    outer loop
      vertex 12.0337 20.6861 8.5
      vertex 12.1345 18.6344 8.5
      vertex 12.1345 21.3656 8.5
    endloop
  endfacet
  facet normal 0 0 1
    outer loop
      vertex 12.0337 20.6861 8.5
      vertex 12.0337 19.3139 8.5
      vertex 12.1345 18.6344 8.5
    endloop
  endfacet
  facet normal 0 -0 1
    outer loop
      vertex 12.0337 19.3139 8.5
      vertex 12.0337 20.6861 8.5
      vertex 12 20 8.5
    endloop
  endfacet
  facet normal -0 0 1
    outer loop
      vertex 7.5 11 8.5
      vertex 30.5 7 8.5
      vertex 30.5 11 8.5
    endloop
  endfacet
  facet normal 0 0 1
    outer loop
      vertex 30.5 7 8.5
      vertex 7.5 11 8.5
      vertex 7.5 7 8.5
    endloop
  endfacet
  facet normal -0 0 1
    outer loop
      vertex 7.5 33 8.5
      vertex 30.5 29 8.5
      vertex 30.5 33 8.5
    endloop
  endfacet
  facet normal 0 0 1
    outer loop
      vertex 30.5 29 8.5
      vertex 7.5 33 8.5
      vertex 7.5 29 8.5
    endloop
  endfacet
  facet normal 0 0 1
    outer loop
      vertex 40 40 8.5
      vertex 39.25 35.25 8.5
      vertex 40 0 8.5
    endloop
  endfacet
  facet normal 0 0 1
    outer loop
      vertex 40 40 8.5
      vertex 0.75 35.25 8.5
      vertex 39.25 35.25 8.5
    endloop
  endfacet
  facet normal 0 0 1
    outer loop
      vertex 0.75 35.25 8.5
      vertex 0 40 8.5
      vertex 0.75 4.75 8.5
    endloop
  endfacet
  facet normal -0 0 1
    outer loop
      vertex 0 40 8.5
      vertex 0.75 35.25 8.5
      vertex 40 40 8.5
    endloop
  endfacet
  facet normal -0 0 1
    outer loop
      vertex 39.25 4.75 8.5
      vertex 40 0 8.5
      vertex 39.25 35.25 8.5
    endloop
  endfacet
  facet normal -0 0 1
    outer loop
      vertex 0.75 4.75 8.5
      vertex 40 0 8.5
      vertex 39.25 4.75 8.5
    endloop
  endfacet
  facet normal 0 0 1
    outer loop
      vertex 0.75 4.75 8.5
      vertex 0 0 8.5
      vertex 40 0 8.5
    endloop
  endfacet
  facet normal 0 0 1
    outer loop
      vertex 0 0 8.5
      vertex 0.75 4.75 8.5
      vertex 0 40 8.5
    endloop
  endfacet
  facet normal 1 0 0
    outer loop
      vertex 40 40 8.5
      vertex 40 23.76 6.5
      vertex 40 40 0
    endloop
  endfacet
  facet normal 1 0 0
    outer loop
      vertex 40 40 8.5
      vertex 40 21.76 6.5
      vertex 40 23.76 6.5
    endloop
  endfacet
  facet normal 1 -0 0
    outer loop
      vertex 40 0 8.5
      vertex 40 21.76 6.5
      vertex 40 40 8.5
    endloop
  endfacet
  facet normal 1 0 0
    outer loop
      vertex 40 0 0
      vertex 40 21.76 6.5
      vertex 40 0 8.5
    endloop
  endfacet
  facet normal 1 0 0
    outer loop
      vertex 40 21.76 6.5
      vertex 40 0 0
      vertex 40 21.76 0
    endloop
  endfacet
  facet normal 1 0 0
    outer loop
      vertex 40 40 0
      vertex 40 23.76 6.5
      vertex 40 23.76 0
    endloop
  endfacet
  facet normal 0 1 -0
    outer loop
      vertex 40 40 0
      vertex 0 40 8.5
      vertex 40 40 8.5
    endloop
  endfacet
  facet normal 0 1 0
    outer loop
      vertex 0 40 8.5
      vertex 40 40 0
      vertex 0 40 0
    endloop
  endfacet
  facet normal 0 0 -1
    outer loop
      vertex 17.1 0 0
      vertex 8.9 4.34 0
      vertex 17.1 4.34 0
    endloop
  endfacet
  facet normal 0 0 -1
    outer loop
      vertex 8.9 4.34 0
      vertex 4 8.74 0
      vertex 8.9 8.74 0
    endloop
  endfacet
  facet normal -0 0 -1
    outer loop
      vertex 4 8.74 0
      vertex 0 0 0
      vertex 4 11.74 0
    endloop
  endfacet
  facet normal -0 0 -1
    outer loop
      vertex 8.9 4.34 0
      vertex 0 0 0
      vertex 4 8.74 0
    endloop
  endfacet
  facet normal 0 0 -1
    outer loop
      vertex 0 0 0
      vertex 8.9 4.34 0
      vertex 17.1 0 0
    endloop
  endfacet
  facet normal 0 0 -1
    outer loop
      vertex 8.9 11.74 0
      vertex 4 11.74 0
      vertex 8.9 27.04 0
    endloop
  endfacet
  facet normal 0 0 -1
    outer loop
      vertex 32.1 27.04 0
      vertex 40 23.76 0
      vertex 32.1 23.76 0
    endloop
  endfacet
  facet normal 0 0 -1
    outer loop
      vertex 40 23.76 0
      vertex 32.1 27.04 0
      vertex 40 40 0
    endloop
  endfacet
  facet normal 0 0 -1
    outer loop
      vertex 8.9 27.04 0
      vertex 40 40 0
      vertex 32.1 27.04 0
    endloop
  endfacet
  facet normal 0 0 -1
    outer loop
      vertex 0 40 0
      vertex 4 11.74 0
      vertex 0 0 0
    endloop
  endfacet
  facet normal 0 0 -1
    outer loop
      vertex 8.9 27.04 0
      vertex 0 40 0
      vertex 40 40 0
    endloop
  endfacet
  facet normal 0 0 -1
    outer loop
      vertex 4 11.74 0
      vertex 0 40 0
      vertex 8.9 27.04 0
    endloop
  endfacet
  facet normal 0 0 -1
    outer loop
      vertex 37 11.74 0
      vertex 40 0 0
      vertex 37 8.74 0
    endloop
  endfacet
  facet normal 0 0 -1
    outer loop
      vertex 32.1 4.34 0
      vertex 40 0 0
      vertex 32.1 0 0
    endloop
  endfacet
  facet normal 0 0 -1
    outer loop
      vertex 40 0 0
      vertex 32.1 4.34 0
      vertex 37 8.74 0
    endloop
  endfacet
  facet normal -0 0 -1
    outer loop
      vertex 37 8.74 0
      vertex 32.1 4.34 0
      vertex 32.1 8.74 0
    endloop
  endfacet
  facet normal 0 0 -1
    outer loop
      vertex 40 0 0
      vertex 37 11.74 0
      vertex 40 21.76 0
    endloop
  endfacet
  facet normal 0 0 -1
    outer loop
      vertex 32.1 21.76 0
      vertex 37 11.74 0
      vertex 32.1 11.74 0
    endloop
  endfacet
  facet normal 0 0 -1
    outer loop
      vertex 37 11.74 0
      vertex 32.1 21.76 0
      vertex 40 21.76 0
    endloop
  endfacet
  facet normal 0 -1 0
    outer loop
      vertex 0 0 8.5
      vertex 25.6 0 6.5
      vertex 40 0 8.5
    endloop
  endfacet
  facet normal 0 -1 0
    outer loop
      vertex 0 0 8.5
      vertex 24.9629 0 6.4687
      vertex 25.6 0 6.5
    endloop
  endfacet
  facet normal 0 -1 0
    outer loop
      vertex 0 0 8.5
      vertex 24.3319 0 6.3751
      vertex 24.9629 0 6.4687
    endloop
  endfacet
  facet normal 0 -1 0
    outer loop
      vertex 0 0 8.5
      vertex 23.7132 0 6.22011
      vertex 24.3319 0 6.3751
    endloop
  endfacet
  facet normal 0 -1 0
    outer loop
      vertex 0 0 8.5
      vertex 23.1126 0 6.00522
      vertex 23.7132 0 6.22011
    endloop
  endfacet
  facet normal 0 -1 0
    outer loop
      vertex 0 0 8.5
      vertex 22.5359 0 5.73249
      vertex 23.1126 0 6.00522
    endloop
  endfacet
  facet normal 0 -1 0
    outer loop
      vertex 0 0 8.5
      vertex 21.9888 0 5.40455
      vertex 22.5359 0 5.73249
    endloop
  endfacet
  facet normal 0 -1 0
    outer loop
      vertex 0 0 8.5
      vertex 21.4764 0 5.02457
      vertex 21.9888 0 5.40455
    endloop
  endfacet
  facet normal 0 -1 0
    outer loop
      vertex 0 0 8.5
      vertex 21.0038 0 4.59619
      vertex 21.4764 0 5.02457
    endloop
  endfacet
  facet normal 0 -1 0
    outer loop
      vertex 18.4333 0 2.49441
      vertex 21.0038 0 4.59619
      vertex 0 0 8.5
    endloop
  endfacet
  facet normal -0 -1 0
    outer loop
      vertex 18.6858 0 2.64576
      vertex 21.0038 0 4.59619
      vertex 18.4333 0 2.49441
    endloop
  endfacet
  facet normal -0 -1 0
    outer loop
      vertex 18.952 0 2.77164
      vertex 20.5754 0 4.12356
      vertex 18.6858 0 2.64576
    endloop
  endfacet
  facet normal -0 -1 0
    outer loop
      vertex 19.5147 0 2.94236
      vertex 20.1954 0 3.61121
      vertex 19.2291 0 2.87082
    endloop
  endfacet
  facet normal 0 -1 0
    outer loop
      vertex 19.8675 0 3.06408
      vertex 19.8059 0 2.98555
      vertex 19.831 0 2.98678
    endloop
  endfacet
  facet normal 0 -1 0
    outer loop
      vertex 19.8675 0 3.06408
      vertex 19.5147 0 2.94236
      vertex 19.8059 0 2.98555
    endloop
  endfacet
  facet normal 0 -1 0
    outer loop
      vertex 20.1954 0 3.61121
      vertex 19.5147 0 2.94236
      vertex 19.8675 0 3.06408
    endloop
  endfacet
  facet normal 0 -1 0
    outer loop
      vertex 20.1954 0 3.61121
      vertex 18.952 0 2.77164
      vertex 19.2291 0 2.87082
    endloop
  endfacet
  facet normal 0 -1 0
    outer loop
      vertex 20.5754 0 4.12356
      vertex 18.952 0 2.77164
      vertex 20.1954 0 3.61121
    endloop
  endfacet
  facet normal 0 -1 0
    outer loop
      vertex 21.0038 0 4.59619
      vertex 18.6858 0 2.64576
      vertex 20.5754 0 4.12356
    endloop
  endfacet
  facet normal 0 -1 0
    outer loop
      vertex 0 0 8.5
      vertex 18.1968 0 2.31903
      vertex 18.4333 0 2.49441
    endloop
  endfacet
  facet normal 0 -1 0
    outer loop
      vertex 0 0 8.5
      vertex 17.9787 0 2.12132
      vertex 18.1968 0 2.31903
    endloop
  endfacet
  facet normal 0 -1 0
    outer loop
      vertex 0 0 8.5
      vertex 17.781 0 1.90318
      vertex 17.9787 0 2.12132
    endloop
  endfacet
  facet normal 0 -1 0
    outer loop
      vertex 0 0 8.5
      vertex 17.6056 0 1.66671
      vertex 17.781 0 1.90318
    endloop
  endfacet
  facet normal 0 -1 0
    outer loop
      vertex 0 0 8.5
      vertex 17.4542 0 1.41419
      vertex 17.6056 0 1.66671
    endloop
  endfacet
  facet normal 0 -1 0
    outer loop
      vertex 0 0 8.5
      vertex 17.3284 0 1.14805
      vertex 17.4542 0 1.41419
    endloop
  endfacet
  facet normal 0 -1 0
    outer loop
      vertex 0 0 8.5
      vertex 17.2292 0 0.870854
      vertex 17.3284 0 1.14805
    endloop
  endfacet
  facet normal 0 -1 0
    outer loop
      vertex 0 0 0
      vertex 17.2292 0 0.870854
      vertex 0 0 8.5
    endloop
  endfacet
  facet normal 0 -1 0
    outer loop
      vertex 17.2292 0 0.870854
      vertex 0 0 0
      vertex 17.1576 0 0.585272
    endloop
  endfacet
  facet normal 0 -1 0
    outer loop
      vertex 17.1576 0 0.585272
      vertex 0 0 0
      vertex 17.1144 0 0.294052
    endloop
  endfacet
  facet normal 0 -1 0
    outer loop
      vertex 17.1144 0 0.294052
      vertex 0 0 0
      vertex 17.1 0 0
    endloop
  endfacet
  facet normal 0 -1 0
    outer loop
      vertex 26.2371 0 6.4687
      vertex 40 0 8.5
      vertex 25.6 0 6.5
    endloop
  endfacet
  facet normal 0 -1 0
    outer loop
      vertex 26.8681 0 6.3751
      vertex 40 0 8.5
      vertex 26.2371 0 6.4687
    endloop
  endfacet
  facet normal 0 -1 0
    outer loop
      vertex 27.4869 0 6.22011
      vertex 40 0 8.5
      vertex 26.8681 0 6.3751
    endloop
  endfacet
  facet normal 0 -1 0
    outer loop
      vertex 28.0874 0 6.00522
      vertex 40 0 8.5
      vertex 27.4869 0 6.22011
    endloop
  endfacet
  facet normal 0 -1 0
    outer loop
      vertex 28.6641 0 5.73249
      vertex 40 0 8.5
      vertex 28.0874 0 6.00522
    endloop
  endfacet
  facet normal 0 -1 0
    outer loop
      vertex 29.2112 0 5.40455
      vertex 40 0 8.5
      vertex 28.6641 0 5.73249
    endloop
  endfacet
  facet normal 0 -1 0
    outer loop
      vertex 29.7236 0 5.02457
      vertex 40 0 8.5
      vertex 29.2112 0 5.40455
    endloop
  endfacet
  facet normal 0 -1 0
    outer loop
      vertex 30.1962 0 4.59619
      vertex 40 0 8.5
      vertex 29.7236 0 5.02457
    endloop
  endfacet
  facet normal 0 -1 0
    outer loop
      vertex 30.6246 0 4.12356
      vertex 40 0 8.5
      vertex 30.1962 0 4.59619
    endloop
  endfacet
  facet normal 0 -1 0
    outer loop
      vertex 31.0046 0 3.61121
      vertex 40 0 8.5
      vertex 30.6246 0 4.12356
    endloop
  endfacet
  facet normal 0 -1 0
    outer loop
      vertex 31.3325 0 3.06408
      vertex 40 0 8.5
      vertex 31.0046 0 3.61121
    endloop
  endfacet
  facet normal 0 -1 0
    outer loop
      vertex 31.6052 0 2.48744
      vertex 40 0 8.5
      vertex 31.3325 0 3.06408
    endloop
  endfacet
  facet normal 0 -1 0
    outer loop
      vertex 40 0 0
      vertex 31.6052 0 2.48744
      vertex 31.8201 0 1.88685
    endloop
  endfacet
  facet normal 0 -1 0
    outer loop
      vertex 40 0 0
      vertex 31.8201 0 1.88685
      vertex 31.9751 0 1.26809
    endloop
  endfacet
  facet normal 0 -1 0
    outer loop
      vertex 40 0 0
      vertex 31.9751 0 1.26809
      vertex 32.0687 0 0.637112
    endloop
  endfacet
  facet normal 0 -1 0
    outer loop
      vertex 40 0 0
      vertex 32.0687 0 0.637112
      vertex 32.1 0 0
    endloop
  endfacet
  facet normal 0 -1 0
    outer loop
      vertex 31.6052 0 2.48744
      vertex 40 0 0
      vertex 40 0 8.5
    endloop
  endfacet
  facet normal 1 0 0
    outer loop
      vertex 39.25 14 19
      vertex 39.25 4.75 19
      vertex 39.25 14 9.5
    endloop
  endfacet
  facet normal 1 0 0
    outer loop
      vertex 39.25 26 9.5
      vertex 39.25 35.25 19
      vertex 39.25 26 19
    endloop
  endfacet
  facet normal 1 0 0
    outer loop
      vertex 39.25 35.25 19
      vertex 39.25 26 9.5
      vertex 39.25 35.25 8.5
    endloop
  endfacet
  facet normal 1 -0 0
    outer loop
      vertex 39.25 14 9.5
      vertex 39.25 35.25 8.5
      vertex 39.25 26 9.5
    endloop
  endfacet
  facet normal 1 0 0
    outer loop
      vertex 39.25 14 9.5
      vertex 39.25 4.75 8.5
      vertex 39.25 35.25 8.5
    endloop
  endfacet
  facet normal 1 0 0
    outer loop
      vertex 39.25 4.75 8.5
      vertex 39.25 14 9.5
      vertex 39.25 4.75 19
    endloop
  endfacet
  facet normal 0 0 1
    outer loop
      vertex 39.25 35.25 19
      vertex 37.25 33.25 19
      vertex 39.25 26 19
    endloop
  endfacet
  facet normal 0 0 1
    outer loop
      vertex 39.25 35.25 19
      vertex 2.75 33.25 19
      vertex 37.25 33.25 19
    endloop
  endfacet
  facet normal 0 0 1
    outer loop
      vertex 2.75 33.25 19
      vertex 0.75 35.25 19
      vertex 2.75 6.75 19
    endloop
  endfacet
  facet normal -0 0 1
    outer loop
      vertex 0.75 35.25 19
      vertex 2.75 33.25 19
      vertex 39.25 35.25 19
    endloop
  endfacet
  facet normal 0 0 1
    outer loop
      vertex 39.25 26 19
      vertex 37.25 33.25 19
      vertex 37.25 26 19
    endloop
  endfacet
  facet normal 0 0 1
    outer loop
      vertex 37.25 6.75 19
      vertex 39.25 14 19
      vertex 37.25 14 19
    endloop
  endfacet
  facet normal 0 0 1
    outer loop
      vertex 39.25 14 19
      vertex 37.25 6.75 19
      vertex 39.25 4.75 19
    endloop
  endfacet
  facet normal -0 0 1
    outer loop
      vertex 2.75 6.75 19
      vertex 39.25 4.75 19
      vertex 37.25 6.75 19
    endloop
  endfacet
  facet normal 0 0 1
    outer loop
      vertex 2.75 6.75 19
      vertex 0.75 4.75 19
      vertex 39.25 4.75 19
    endloop
  endfacet
  facet normal 0 0 1
    outer loop
      vertex 0.75 4.75 19
      vertex 2.75 6.75 19
      vertex 0.75 35.25 19
    endloop
  endfacet
  facet normal -1 0 0
    outer loop
      vertex 0.75 4.75 8.5
      vertex 0.75 35.25 19
      vertex 0.75 35.25 8.5
    endloop
  endfacet
  facet normal -1 -0 0
    outer loop
      vertex 0.75 35.25 19
      vertex 0.75 4.75 8.5
      vertex 0.75 4.75 19
    endloop
  endfacet
  facet normal 0 -1 0
    outer loop
      vertex 0.75 4.75 8.5
      vertex 39.25 4.75 19
      vertex 0.75 4.75 19
    endloop
  endfacet
  facet normal 0 -1 -0
    outer loop
      vertex 39.25 4.75 19
      vertex 0.75 4.75 8.5
      vertex 39.25 4.75 8.5
    endloop
  endfacet
  facet normal 0 1 0
    outer loop
      vertex 30.25 35.25 17.5
      vertex 39.25 35.25 19
      vertex 37.25 35.25 17.5
    endloop
  endfacet
  facet normal 0 1 0
    outer loop
      vertex 39.25 35.25 19
      vertex 37.25 35.25 13.5
      vertex 37.25 35.25 17.5
    endloop
  endfacet
  facet normal 0 1 0
    outer loop
      vertex 37.25 35.25 13.5
      vertex 39.25 35.25 8.5
      vertex 30.25 35.25 13.5
    endloop
  endfacet
  facet normal 0 1 -0
    outer loop
      vertex 39.25 35.25 8.5
      vertex 37.25 35.25 13.5
      vertex 39.25 35.25 19
    endloop
  endfacet
  facet normal 0 1 0
    outer loop
      vertex 39.25 35.25 19
      vertex 30.25 35.25 17.5
      vertex 0.75 35.25 19
    endloop
  endfacet
  facet normal 0 1 -0
    outer loop
      vertex 30.25 35.25 13.5
      vertex 0.75 35.25 19
      vertex 30.25 35.25 17.5
    endloop
  endfacet
  facet normal 0 1 0
    outer loop
      vertex 0.75 35.25 8.5
      vertex 30.25 35.25 13.5
      vertex 39.25 35.25 8.5
    endloop
  endfacet
  facet normal 0 1 0
    outer loop
      vertex 30.25 35.25 13.5
      vertex 0.75 35.25 8.5
      vertex 0.75 35.25 19
    endloop
  endfacet
  facet normal -1 0 0
    outer loop
      vertex 37.25 26 10.5
      vertex 37.25 33.25 13.5
      vertex 37.25 33.25 10.5
    endloop
  endfacet
  facet normal -1 0 0
    outer loop
      vertex 37.25 26 19
      vertex 37.25 33.25 13.5
      vertex 37.25 26 10.5
    endloop
  endfacet
  facet normal -1 0 0
    outer loop
      vertex 37.25 33.25 13.5
      vertex 37.25 26 19
      vertex 37.25 33.25 17.5
    endloop
  endfacet
  facet normal -1 0 0
    outer loop
      vertex 37.25 33.25 17.5
      vertex 37.25 26 19
      vertex 37.25 33.25 19
    endloop
  endfacet
  facet normal -1 0 0
    outer loop
      vertex 37.25 33.25 13.5
      vertex 37.25 35.25 17.5
      vertex 37.25 35.25 13.5
    endloop
  endfacet
  facet normal -1 -0 0
    outer loop
      vertex 37.25 35.25 17.5
      vertex 37.25 33.25 13.5
      vertex 37.25 33.25 17.5
    endloop
  endfacet
  facet normal -1 0 0
    outer loop
      vertex 37.25 6.75 10.5
      vertex 37.25 14 19
      vertex 37.25 14 10.5
    endloop
  endfacet
  facet normal -1 -0 0
    outer loop
      vertex 37.25 14 19
      vertex 37.25 6.75 10.5
      vertex 37.25 6.75 19
    endloop
  endfacet
  facet normal 1 -0 0
    outer loop
      vertex 2.75 6.75 19
      vertex 2.75 33.25 14.5
      vertex 2.75 33.25 19
    endloop
  endfacet
  facet normal 1 0 0
    outer loop
      vertex 2.75 33.25 14.5
      vertex 2.75 6.75 19
      vertex 2.75 6.75 14.5
    endloop
  endfacet
  facet normal 0 1 0
    outer loop
      vertex 37.25 6.75 19
      vertex 6.5 6.75 14.5
      vertex 2.75 6.75 19
    endloop
  endfacet
  facet normal 0 1 -0
    outer loop
      vertex 37.25 6.75 10.5
      vertex 6.5 6.75 14.5
      vertex 37.25 6.75 19
    endloop
  endfacet
  facet normal 0 1 0
    outer loop
      vertex 6.5 6.75 14.5
      vertex 37.25 6.75 10.5
      vertex 6.5 6.75 10.5
    endloop
  endfacet
  facet normal 0 1 0
    outer loop
      vertex 2.75 6.75 19
      vertex 6.5 6.75 14.5
      vertex 2.75 6.75 14.5
    endloop
  endfacet
  facet normal -0 0 1
    outer loop
      vertex 25.9663 19.3139 10.5
      vertex 32 13.375 10.5
      vertex 26 20 10.5
    endloop
  endfacet
  facet normal 0 0 1
    outer loop
      vertex 32 26.625 10.5
      vertex 25.9663 20.6861 10.5
      vertex 26 20 10.5
    endloop
  endfacet
  facet normal 0 0 1
    outer loop
      vertex 32 26.625 10.5
      vertex 25.8655 21.3656 10.5
      vertex 25.9663 20.6861 10.5
    endloop
  endfacet
  facet normal 0 0 1
    outer loop
      vertex 32 26.625 10.5
      vertex 25.6986 22.032 10.5
      vertex 25.8655 21.3656 10.5
    endloop
  endfacet
  facet normal 0 0 1
    outer loop
      vertex 32 26.625 10.5
      vertex 25.4672 22.6788 10.5
      vertex 25.6986 22.032 10.5
    endloop
  endfacet
  facet normal 0 0 1
    outer loop
      vertex 32 26.625 10.5
      vertex 25.1734 23.2998 10.5
      vertex 25.4672 22.6788 10.5
    endloop
  endfacet
  facet normal 0 0 1
    outer loop
      vertex 32 26.625 10.5
      vertex 24.8203 23.889 10.5
      vertex 25.1734 23.2998 10.5
    endloop
  endfacet
  facet normal 0 0 1
    outer loop
      vertex 30.5 29 10.5
      vertex 24.4111 24.4408 10.5
      vertex 24.8203 23.889 10.5
    endloop
  endfacet
  facet normal 0 0 1
    outer loop
      vertex 30.5 29 10.5
      vertex 23.9497 24.9497 10.5
      vertex 24.4111 24.4408 10.5
    endloop
  endfacet
  facet normal 0 0 1
    outer loop
      vertex 30.5 29 10.5
      vertex 23.4408 25.4111 10.5
      vertex 23.9497 24.9497 10.5
    endloop
  endfacet
  facet normal 0 0 1
    outer loop
      vertex 30.5 29 10.5
      vertex 22.889 25.8203 10.5
      vertex 23.4408 25.4111 10.5
    endloop
  endfacet
  facet normal 0 0 1
    outer loop
      vertex 30.5 29 10.5
      vertex 22.2998 26.1734 10.5
      vertex 22.889 25.8203 10.5
    endloop
  endfacet
  facet normal 0 0 1
    outer loop
      vertex 30.5 29 10.5
      vertex 21.6788 26.4672 10.5
      vertex 22.2998 26.1734 10.5
    endloop
  endfacet
  facet normal 0 0 1
    outer loop
      vertex 30.5 29 10.5
      vertex 21.032 26.6986 10.5
      vertex 21.6788 26.4672 10.5
    endloop
  endfacet
  facet normal 0 0 1
    outer loop
      vertex 30.5 29 10.5
      vertex 20.3656 26.8655 10.5
      vertex 21.032 26.6986 10.5
    endloop
  endfacet
  facet normal 0 0 1
    outer loop
      vertex 30.5 29 10.5
      vertex 19.6861 26.9663 10.5
      vertex 20.3656 26.8655 10.5
    endloop
  endfacet
  facet normal 0 0 1
    outer loop
      vertex 30.5 29 10.5
      vertex 19 27 10.5
      vertex 19.6861 26.9663 10.5
    endloop
  endfacet
  facet normal -0 0 1
    outer loop
      vertex 7.5 29 10.5
      vertex 19 27 10.5
      vertex 30.5 29 10.5
    endloop
  endfacet
  facet normal 0 0 1
    outer loop
      vertex 19 27 10.5
      vertex 7.5 29 10.5
      vertex 18.3139 26.9663 10.5
    endloop
  endfacet
  facet normal 0 0 1
    outer loop
      vertex 12.0337 20.6861 10.5
      vertex 7.5 29 10.5
      vertex 12 20 10.5
    endloop
  endfacet
  facet normal 0 0 1
    outer loop
      vertex 12.1345 21.3656 10.5
      vertex 7.5 29 10.5
      vertex 12.0337 20.6861 10.5
    endloop
  endfacet
  facet normal 0 0 1
    outer loop
      vertex 12.3014 22.032 10.5
      vertex 7.5 29 10.5
      vertex 12.1345 21.3656 10.5
    endloop
  endfacet
  facet normal 0 0 1
    outer loop
      vertex 12.5328 22.6788 10.5
      vertex 7.5 29 10.5
      vertex 12.3014 22.032 10.5
    endloop
  endfacet
  facet normal 0 0 1
    outer loop
      vertex 12.8266 23.2998 10.5
      vertex 7.5 29 10.5
      vertex 12.5328 22.6788 10.5
    endloop
  endfacet
  facet normal 0 0 1
    outer loop
      vertex 13.1797 23.889 10.5
      vertex 7.5 29 10.5
      vertex 12.8266 23.2998 10.5
    endloop
  endfacet
  facet normal 0 0 1
    outer loop
      vertex 13.5889 24.4408 10.5
      vertex 7.5 29 10.5
      vertex 13.1797 23.889 10.5
    endloop
  endfacet
  facet normal 0 0 1
    outer loop
      vertex 14.0503 24.9497 10.5
      vertex 7.5 29 10.5
      vertex 13.5889 24.4408 10.5
    endloop
  endfacet
  facet normal 0 0 1
    outer loop
      vertex 14.5592 25.4111 10.5
      vertex 7.5 29 10.5
      vertex 14.0503 24.9497 10.5
    endloop
  endfacet
  facet normal 0 0 1
    outer loop
      vertex 15.111 25.8203 10.5
      vertex 7.5 29 10.5
      vertex 14.5592 25.4111 10.5
    endloop
  endfacet
  facet normal 0 0 1
    outer loop
      vertex 15.7002 26.1734 10.5
      vertex 7.5 29 10.5
      vertex 15.111 25.8203 10.5
    endloop
  endfacet
  facet normal 0 0 1
    outer loop
      vertex 16.3212 26.4672 10.5
      vertex 7.5 29 10.5
      vertex 15.7002 26.1734 10.5
    endloop
  endfacet
  facet normal 0 0 1
    outer loop
      vertex 16.968 26.6986 10.5
      vertex 7.5 29 10.5
      vertex 16.3212 26.4672 10.5
    endloop
  endfacet
  facet normal 0 0 1
    outer loop
      vertex 17.6344 26.8655 10.5
      vertex 7.5 29 10.5
      vertex 16.968 26.6986 10.5
    endloop
  endfacet
  facet normal 0 0 1
    outer loop
      vertex 18.3139 26.9663 10.5
      vertex 7.5 29 10.5
      vertex 17.6344 26.8655 10.5
    endloop
  endfacet
  facet normal -0 0 1
    outer loop
      vertex 36 26.625 10.5
      vertex 37.25 26 10.5
      vertex 37.25 33.25 10.5
    endloop
  endfacet
  facet normal 0 0 1
    outer loop
      vertex 37 26 10.5
      vertex 36 26.625 10.5
      vertex 37 14 10.5
    endloop
  endfacet
  facet normal 0 0 1
    outer loop
      vertex 37.25 26 10.5
      vertex 36 26.625 10.5
      vertex 37 26 10.5
    endloop
  endfacet
  facet normal -0 0 1
    outer loop
      vertex 30.5 29 10.5
      vertex 36 26.625 10.5
      vertex 37.25 33.25 10.5
    endloop
  endfacet
  facet normal 0 0 1
    outer loop
      vertex 36 26.625 10.5
      vertex 30.5 29 10.5
      vertex 32 26.625 10.5
    endloop
  endfacet
  facet normal 0 0 1
    outer loop
      vertex 30.5 29 10.5
      vertex 37.25 33.25 10.5
      vertex 30.5 33 10.5
    endloop
  endfacet
  facet normal -0 0 1
    outer loop
      vertex 6.5 33.25 10.5
      vertex 30.5 33 10.5
      vertex 37.25 33.25 10.5
    endloop
  endfacet
  facet normal 0 0 1
    outer loop
      vertex 6.5 33.25 10.5
      vertex 7.5 29 10.5
      vertex 7.5 33 10.5
    endloop
  endfacet
  facet normal 0 0 1
    outer loop
      vertex 7.5 29 10.5
      vertex 6.5 33.25 10.5
      vertex 7.5 11 10.5
    endloop
  endfacet
  facet normal 0 0 1
    outer loop
      vertex 6.5 6.75 10.5
      vertex 7.5 11 10.5
      vertex 6.5 33.25 10.5
    endloop
  endfacet
  facet normal 0 0 1
    outer loop
      vertex 30.5 33 10.5
      vertex 6.5 33.25 10.5
      vertex 7.5 33 10.5
    endloop
  endfacet
  facet normal 0 0 1
    outer loop
      vertex 36 13.375 10.5
      vertex 37.25 14 10.5
      vertex 37 14 10.5
    endloop
  endfacet
  facet normal 0 0 1
    outer loop
      vertex 36 13.375 10.5
      vertex 37 14 10.5
      vertex 36 26.625 10.5
    endloop
  endfacet
  facet normal 0 0 1
    outer loop
      vertex 37.25 14 10.5
      vertex 36 13.375 10.5
      vertex 37.25 6.75 10.5
    endloop
  endfacet
  facet normal 0 0 1
    outer loop
      vertex 30.5 11 10.5
      vertex 36 13.375 10.5
      vertex 32 13.375 10.5
    endloop
  endfacet
  facet normal 0 0 1
    outer loop
      vertex 24.8203 23.889 10.5
      vertex 32 26.625 10.5
      vertex 30.5 29 10.5
    endloop
  endfacet
  facet normal 0 0 1
    outer loop
      vertex 32 26.625 10.5
      vertex 26 20 10.5
      vertex 32 13.375 10.5
    endloop
  endfacet
  facet normal 0 0 1
    outer loop
      vertex 36 13.375 10.5
      vertex 30.5 11 10.5
      vertex 37.25 6.75 10.5
    endloop
  endfacet
  facet normal -0 0 1
    outer loop
      vertex 30.5 7 10.5
      vertex 37.25 6.75 10.5
      vertex 30.5 11 10.5
    endloop
  endfacet
  facet normal 0 0 1
    outer loop
      vertex 6.5 6.75 10.5
      vertex 30.5 7 10.5
      vertex 7.5 7 10.5
    endloop
  endfacet
  facet normal 0 0 1
    outer loop
      vertex 30.5 7 10.5
      vertex 6.5 6.75 10.5
      vertex 37.25 6.75 10.5
    endloop
  endfacet
  facet normal 0 0 1
    outer loop
      vertex 7.5 11 10.5
      vertex 6.5 6.75 10.5
      vertex 7.5 7 10.5
    endloop
  endfacet
  facet normal -0 0 1
    outer loop
      vertex 25.8655 18.6344 10.5
      vertex 32 13.375 10.5
      vertex 25.9663 19.3139 10.5
    endloop
  endfacet
  facet normal -0 0 1
    outer loop
      vertex 25.6986 17.968 10.5
      vertex 32 13.375 10.5
      vertex 25.8655 18.6344 10.5
    endloop
  endfacet
  facet normal -0 0 1
    outer loop
      vertex 25.4672 17.3212 10.5
      vertex 32 13.375 10.5
      vertex 25.6986 17.968 10.5
    endloop
  endfacet
  facet normal -0 0 1
    outer loop
      vertex 25.1734 16.7002 10.5
      vertex 32 13.375 10.5
      vertex 25.4672 17.3212 10.5
    endloop
  endfacet
  facet normal -0 0 1
    outer loop
      vertex 24.8203 16.111 10.5
      vertex 32 13.375 10.5
      vertex 25.1734 16.7002 10.5
    endloop
  endfacet
  facet normal 0 0 1
    outer loop
      vertex 32 13.375 10.5
      vertex 24.8203 16.111 10.5
      vertex 30.5 11 10.5
    endloop
  endfacet
  facet normal -0 0 1
    outer loop
      vertex 24.4111 15.5592 10.5
      vertex 30.5 11 10.5
      vertex 24.8203 16.111 10.5
    endloop
  endfacet
  facet normal -0 0 1
    outer loop
      vertex 23.9497 15.0503 10.5
      vertex 30.5 11 10.5
      vertex 24.4111 15.5592 10.5
    endloop
  endfacet
  facet normal -0 0 1
    outer loop
      vertex 23.4408 14.5889 10.5
      vertex 30.5 11 10.5
      vertex 23.9497 15.0503 10.5
    endloop
  endfacet
  facet normal -0 0 1
    outer loop
      vertex 22.889 14.1797 10.5
      vertex 30.5 11 10.5
      vertex 23.4408 14.5889 10.5
    endloop
  endfacet
  facet normal -0 0 1
    outer loop
      vertex 22.2998 13.8266 10.5
      vertex 30.5 11 10.5
      vertex 22.889 14.1797 10.5
    endloop
  endfacet
  facet normal -0 0 1
    outer loop
      vertex 21.6788 13.5328 10.5
      vertex 30.5 11 10.5
      vertex 22.2998 13.8266 10.5
    endloop
  endfacet
  facet normal -0 0 1
    outer loop
      vertex 21.032 13.3014 10.5
      vertex 30.5 11 10.5
      vertex 21.6788 13.5328 10.5
    endloop
  endfacet
  facet normal -0 0 1
    outer loop
      vertex 20.3656 13.1345 10.5
      vertex 30.5 11 10.5
      vertex 21.032 13.3014 10.5
    endloop
  endfacet
  facet normal -0 0 1
    outer loop
      vertex 19.6861 13.0337 10.5
      vertex 30.5 11 10.5
      vertex 20.3656 13.1345 10.5
    endloop
  endfacet
  facet normal -0 0 1
    outer loop
      vertex 19 13 10.5
      vertex 30.5 11 10.5
      vertex 19.6861 13.0337 10.5
    endloop
  endfacet
  facet normal 0 0 1
    outer loop
      vertex 7.5 11 10.5
      vertex 19 13 10.5
      vertex 18.3139 13.0337 10.5
    endloop
  endfacet
  facet normal 0 0 1
    outer loop
      vertex 7.5 11 10.5
      vertex 18.3139 13.0337 10.5
      vertex 17.6344 13.1345 10.5
    endloop
  endfacet
  facet normal 0 0 1
    outer loop
      vertex 7.5 11 10.5
      vertex 12 20 10.5
      vertex 7.5 29 10.5
    endloop
  endfacet
  facet normal 0 0 1
    outer loop
      vertex 12 20 10.5
      vertex 7.5 11 10.5
      vertex 12.0337 19.3139 10.5
    endloop
  endfacet
  facet normal 0 0 1
    outer loop
      vertex 12.0337 19.3139 10.5
      vertex 7.5 11 10.5
      vertex 12.1345 18.6344 10.5
    endloop
  endfacet
  facet normal 0 0 1
    outer loop
      vertex 12.1345 18.6344 10.5
      vertex 7.5 11 10.5
      vertex 12.3014 17.968 10.5
    endloop
  endfacet
  facet normal 0 0 1
    outer loop
      vertex 19 13 10.5
      vertex 7.5 11 10.5
      vertex 30.5 11 10.5
    endloop
  endfacet
  facet normal 0 0 1
    outer loop
      vertex 16.968 13.3014 10.5
      vertex 7.5 11 10.5
      vertex 17.6344 13.1345 10.5
    endloop
  endfacet
  facet normal 0 0 1
    outer loop
      vertex 16.3212 13.5328 10.5
      vertex 7.5 11 10.5
      vertex 16.968 13.3014 10.5
    endloop
  endfacet
  facet normal 0 0 1
    outer loop
      vertex 15.7002 13.8266 10.5
      vertex 7.5 11 10.5
      vertex 16.3212 13.5328 10.5
    endloop
  endfacet
  facet normal 0 0 1
    outer loop
      vertex 15.111 14.1797 10.5
      vertex 7.5 11 10.5
      vertex 15.7002 13.8266 10.5
    endloop
  endfacet
  facet normal 0 0 1
    outer loop
      vertex 14.5592 14.5889 10.5
      vertex 7.5 11 10.5
      vertex 15.111 14.1797 10.5
    endloop
  endfacet
  facet normal 0 0 1
    outer loop
      vertex 14.0503 15.0503 10.5
      vertex 7.5 11 10.5
      vertex 14.5592 14.5889 10.5
    endloop
  endfacet
  facet normal 0 0 1
    outer loop
      vertex 13.5889 15.5592 10.5
      vertex 7.5 11 10.5
      vertex 14.0503 15.0503 10.5
    endloop
  endfacet
  facet normal 0 0 1
    outer loop
      vertex 13.1797 16.111 10.5
      vertex 7.5 11 10.5
      vertex 13.5889 15.5592 10.5
    endloop
  endfacet
  facet normal 0 0 1
    outer loop
      vertex 12.8266 16.7002 10.5
      vertex 7.5 11 10.5
      vertex 13.1797 16.111 10.5
    endloop
  endfacet
  facet normal 0 0 1
    outer loop
      vertex 12.5328 17.3212 10.5
      vertex 7.5 11 10.5
      vertex 12.8266 16.7002 10.5
    endloop
  endfacet
  facet normal 0 0 1
    outer loop
      vertex 12.3014 17.968 10.5
      vertex 7.5 11 10.5
      vertex 12.5328 17.3212 10.5
    endloop
  endfacet
  facet normal 0 -1 0
    outer loop
      vertex 2.75 33.25 19
      vertex 30.25 33.25 17.5
      vertex 37.25 33.25 19
    endloop
  endfacet
  facet normal 0 -1 0
    outer loop
      vertex 6.5 33.25 14.5
      vertex 2.75 33.25 19
      vertex 2.75 33.25 14.5
    endloop
  endfacet
  facet normal 0 -1 0
    outer loop
      vertex 2.75 33.25 19
      vertex 6.5 33.25 14.5
      vertex 30.25 33.25 17.5
    endloop
  endfacet
  facet normal 0 -1 0
    outer loop
      vertex 6.5 33.25 14.5
      vertex 30.25 33.25 13.5
      vertex 30.25 33.25 17.5
    endloop
  endfacet
  facet normal 0 -1 0
    outer loop
      vertex 6.5 33.25 10.5
      vertex 30.25 33.25 13.5
      vertex 6.5 33.25 14.5
    endloop
  endfacet
  facet normal 0 -1 0
    outer loop
      vertex 37.25 33.25 10.5
      vertex 30.25 33.25 13.5
      vertex 6.5 33.25 10.5
    endloop
  endfacet
  facet normal 0 -1 0
    outer loop
      vertex 30.25 33.25 13.5
      vertex 37.25 33.25 10.5
      vertex 37.25 33.25 13.5
    endloop
  endfacet
  facet normal 0 -1 -0
    outer loop
      vertex 37.25 33.25 19
      vertex 30.25 33.25 17.5
      vertex 37.25 33.25 17.5
    endloop
  endfacet
  facet normal 0.97004 0.242947 0
    outer loop
      vertex 12.3014 17.968 10.5
      vertex 12.1345 18.6344 8.5
      vertex 12.1345 18.6344 10.5
    endloop
  endfacet
  facet normal 0.97004 0.242947 0
    outer loop
      vertex 12.1345 18.6344 8.5
      vertex 12.3014 17.968 10.5
      vertex 12.3014 17.968 8.5
    endloop
  endfacet
  facet normal 0.998796 0.0490591 0
    outer loop
      vertex 12.0337 19.3139 10.5
      vertex 12 20 8.5
      vertex 12 20 10.5
    endloop
  endfacet
  facet normal 0.998796 0.0490591 0
    outer loop
      vertex 12 20 8.5
      vertex 12.0337 19.3139 10.5
      vertex 12.0337 19.3139 8.5
    endloop
  endfacet
  facet normal -0.998796 0.0490591 0
    outer loop
      vertex 25.9663 19.3139 8.5
      vertex 26 20 10.5
      vertex 26 20 8.5
    endloop
  endfacet
  facet normal -0.998796 0.0490591 0
    outer loop
      vertex 26 20 10.5
      vertex 25.9663 19.3139 8.5
      vertex 25.9663 19.3139 10.5
    endloop
  endfacet
  facet normal 0.0490591 0.998796 -0
    outer loop
      vertex 19 13 8.5
      vertex 18.3139 13.0337 10.5
      vertex 19 13 10.5
    endloop
  endfacet
  facet normal 0.0490591 0.998796 0
    outer loop
      vertex 18.3139 13.0337 10.5
      vertex 19 13 8.5
      vertex 18.3139 13.0337 8.5
    endloop
  endfacet
  facet normal 0.671687 0.740835 -0
    outer loop
      vertex 14.5592 14.5889 8.5
      vertex 14.0503 15.0503 10.5
      vertex 14.5592 14.5889 10.5
    endloop
  endfacet
  facet normal 0.671687 0.740835 0
    outer loop
      vertex 14.0503 15.0503 10.5
      vertex 14.5592 14.5889 8.5
      vertex 14.0503 15.0503 8.5
    endloop
  endfacet
  facet normal -0.671687 0.740835 0
    outer loop
      vertex 23.9497 15.0503 8.5
      vertex 23.4408 14.5889 10.5
      vertex 23.9497 15.0503 10.5
    endloop
  endfacet
  facet normal -0.671687 0.740835 0
    outer loop
      vertex 23.4408 14.5889 10.5
      vertex 23.9497 15.0503 8.5
      vertex 23.4408 14.5889 8.5
    endloop
  endfacet
  facet normal -0.336853 0.941557 0
    outer loop
      vertex 21.6788 13.5328 8.5
      vertex 21.032 13.3014 10.5
      vertex 21.6788 13.5328 10.5
    endloop
  endfacet
  facet normal -0.336853 0.941557 0
    outer loop
      vertex 21.032 13.3014 10.5
      vertex 21.6788 13.5328 8.5
      vertex 21.032 13.3014 8.5
    endloop
  endfacet
  facet normal -0.803237 -0.595659 0
    outer loop
      vertex 24.8203 23.889 8.5
      vertex 24.4111 24.4408 10.5
      vertex 24.4111 24.4408 8.5
    endloop
  endfacet
  facet normal -0.803237 -0.595659 0
    outer loop
      vertex 24.4111 24.4408 10.5
      vertex 24.8203 23.889 8.5
      vertex 24.8203 23.889 10.5
    endloop
  endfacet
  facet normal 0.941557 0.336853 0
    outer loop
      vertex 12.5328 17.3212 10.5
      vertex 12.3014 17.968 8.5
      vertex 12.3014 17.968 10.5
    endloop
  endfacet
  facet normal 0.941557 0.336853 0
    outer loop
      vertex 12.3014 17.968 8.5
      vertex 12.5328 17.3212 10.5
      vertex 12.5328 17.3212 8.5
    endloop
  endfacet
  facet normal 0.427661 0.903939 -0
    outer loop
      vertex 16.3212 13.5328 8.5
      vertex 15.7002 13.8266 10.5
      vertex 16.3212 13.5328 10.5
    endloop
  endfacet
  facet normal 0.427661 0.903939 0
    outer loop
      vertex 15.7002 13.8266 10.5
      vertex 16.3212 13.5328 8.5
      vertex 15.7002 13.8266 8.5
    endloop
  endfacet
  facet normal 0.595659 0.803237 -0
    outer loop
      vertex 15.111 14.1797 8.5
      vertex 14.5592 14.5889 10.5
      vertex 15.111 14.1797 10.5
    endloop
  endfacet
  facet normal 0.595659 0.803237 0
    outer loop
      vertex 14.5592 14.5889 10.5
      vertex 15.111 14.1797 8.5
      vertex 14.5592 14.5889 8.5
    endloop
  endfacet
  facet normal -0.857763 0.514046 0
    outer loop
      vertex 24.8203 16.111 8.5
      vertex 25.1734 16.7002 10.5
      vertex 25.1734 16.7002 8.5
    endloop
  endfacet
  facet normal -0.857763 0.514046 0
    outer loop
      vertex 25.1734 16.7002 10.5
      vertex 24.8203 16.111 8.5
      vertex 24.8203 16.111 10.5
    endloop
  endfacet
  facet normal -0.803237 0.595659 0
    outer loop
      vertex 24.4111 15.5592 8.5
      vertex 24.8203 16.111 10.5
      vertex 24.8203 16.111 8.5
    endloop
  endfacet
  facet normal -0.803237 0.595659 0
    outer loop
      vertex 24.8203 16.111 10.5
      vertex 24.4111 15.5592 8.5
      vertex 24.4111 15.5592 10.5
    endloop
  endfacet
  facet normal 0.903939 -0.427661 0
    outer loop
      vertex 12.5328 22.6788 10.5
      vertex 12.8266 23.2998 8.5
      vertex 12.8266 23.2998 10.5
    endloop
  endfacet
  facet normal 0.903939 -0.427661 0
    outer loop
      vertex 12.8266 23.2998 8.5
      vertex 12.5328 22.6788 10.5
      vertex 12.5328 22.6788 8.5
    endloop
  endfacet
  facet normal 0.242947 -0.97004 0
    outer loop
      vertex 16.968 26.6986 8.5
      vertex 17.6344 26.8655 10.5
      vertex 16.968 26.6986 10.5
    endloop
  endfacet
  facet normal 0.242947 -0.97004 0
    outer loop
      vertex 17.6344 26.8655 10.5
      vertex 16.968 26.6986 8.5
      vertex 17.6344 26.8655 8.5
    endloop
  endfacet
  facet normal 0.740835 -0.671687 0
    outer loop
      vertex 13.5889 24.4408 10.5
      vertex 14.0503 24.9497 8.5
      vertex 14.0503 24.9497 10.5
    endloop
  endfacet
  facet normal 0.740835 -0.671687 0
    outer loop
      vertex 14.0503 24.9497 8.5
      vertex 13.5889 24.4408 10.5
      vertex 13.5889 24.4408 8.5
    endloop
  endfacet
  facet normal 0.97004 -0.242947 0
    outer loop
      vertex 12.1345 21.3656 10.5
      vertex 12.3014 22.032 8.5
      vertex 12.3014 22.032 10.5
    endloop
  endfacet
  facet normal 0.97004 -0.242947 0
    outer loop
      vertex 12.3014 22.032 8.5
      vertex 12.1345 21.3656 10.5
      vertex 12.1345 21.3656 8.5
    endloop
  endfacet
  facet normal -0.336853 -0.941557 0
    outer loop
      vertex 21.032 26.6986 8.5
      vertex 21.6788 26.4672 10.5
      vertex 21.032 26.6986 10.5
    endloop
  endfacet
  facet normal -0.336853 -0.941557 -0
    outer loop
      vertex 21.6788 26.4672 10.5
      vertex 21.032 26.6986 8.5
      vertex 21.6788 26.4672 8.5
    endloop
  endfacet
  facet normal -0.514046 -0.857763 0
    outer loop
      vertex 22.2998 26.1734 8.5
      vertex 22.889 25.8203 10.5
      vertex 22.2998 26.1734 10.5
    endloop
  endfacet
  facet normal -0.514046 -0.857763 -0
    outer loop
      vertex 22.889 25.8203 10.5
      vertex 22.2998 26.1734 8.5
      vertex 22.889 25.8203 8.5
    endloop
  endfacet
  facet normal 0.903939 0.427661 0
    outer loop
      vertex 12.8266 16.7002 10.5
      vertex 12.5328 17.3212 8.5
      vertex 12.5328 17.3212 10.5
    endloop
  endfacet
  facet normal 0.903939 0.427661 0
    outer loop
      vertex 12.5328 17.3212 8.5
      vertex 12.8266 16.7002 10.5
      vertex 12.8266 16.7002 8.5
    endloop
  endfacet
  facet normal 0.857763 0.514046 0
    outer loop
      vertex 13.1797 16.111 10.5
      vertex 12.8266 16.7002 8.5
      vertex 12.8266 16.7002 10.5
    endloop
  endfacet
  facet normal 0.857763 0.514046 0
    outer loop
      vertex 12.8266 16.7002 8.5
      vertex 13.1797 16.111 10.5
      vertex 13.1797 16.111 8.5
    endloop
  endfacet
  facet normal 0.740835 0.671687 0
    outer loop
      vertex 14.0503 15.0503 10.5
      vertex 13.5889 15.5592 8.5
      vertex 13.5889 15.5592 10.5
    endloop
  endfacet
  facet normal 0.740835 0.671687 0
    outer loop
      vertex 13.5889 15.5592 8.5
      vertex 14.0503 15.0503 10.5
      vertex 14.0503 15.0503 8.5
    endloop
  endfacet
  facet normal 0.803237 0.595659 0
    outer loop
      vertex 13.5889 15.5592 10.5
      vertex 13.1797 16.111 8.5
      vertex 13.1797 16.111 10.5
    endloop
  endfacet
  facet normal 0.803237 0.595659 0
    outer loop
      vertex 13.1797 16.111 8.5
      vertex 13.5889 15.5592 10.5
      vertex 13.5889 15.5592 8.5
    endloop
  endfacet
  facet normal 0.242947 0.97004 -0
    outer loop
      vertex 17.6344 13.1345 8.5
      vertex 16.968 13.3014 10.5
      vertex 17.6344 13.1345 10.5
    endloop
  endfacet
  facet normal 0.242947 0.97004 0
    outer loop
      vertex 16.968 13.3014 10.5
      vertex 17.6344 13.1345 8.5
      vertex 16.968 13.3014 8.5
    endloop
  endfacet
  facet normal 0.514046 0.857763 -0
    outer loop
      vertex 15.7002 13.8266 8.5
      vertex 15.111 14.1797 10.5
      vertex 15.7002 13.8266 10.5
    endloop
  endfacet
  facet normal 0.514046 0.857763 0
    outer loop
      vertex 15.111 14.1797 10.5
      vertex 15.7002 13.8266 8.5
      vertex 15.111 14.1797 8.5
    endloop
  endfacet
  facet normal -0.903939 0.427661 0
    outer loop
      vertex 25.1734 16.7002 8.5
      vertex 25.4672 17.3212 10.5
      vertex 25.4672 17.3212 8.5
    endloop
  endfacet
  facet normal -0.903939 0.427661 0
    outer loop
      vertex 25.4672 17.3212 10.5
      vertex 25.1734 16.7002 8.5
      vertex 25.1734 16.7002 10.5
    endloop
  endfacet
  facet normal -0.97004 0.242947 0
    outer loop
      vertex 25.6986 17.968 8.5
      vertex 25.8655 18.6344 10.5
      vertex 25.8655 18.6344 8.5
    endloop
  endfacet
  facet normal -0.97004 0.242947 0
    outer loop
      vertex 25.8655 18.6344 10.5
      vertex 25.6986 17.968 8.5
      vertex 25.6986 17.968 10.5
    endloop
  endfacet
  facet normal -0.514046 0.857763 0
    outer loop
      vertex 22.889 14.1797 8.5
      vertex 22.2998 13.8266 10.5
      vertex 22.889 14.1797 10.5
    endloop
  endfacet
  facet normal -0.514046 0.857763 0
    outer loop
      vertex 22.2998 13.8266 10.5
      vertex 22.889 14.1797 8.5
      vertex 22.2998 13.8266 8.5
    endloop
  endfacet
  facet normal -0.0490591 0.998796 0
    outer loop
      vertex 19.6861 13.0337 8.5
      vertex 19 13 10.5
      vertex 19.6861 13.0337 10.5
    endloop
  endfacet
  facet normal -0.0490591 0.998796 0
    outer loop
      vertex 19 13 10.5
      vertex 19.6861 13.0337 8.5
      vertex 19 13 8.5
    endloop
  endfacet
  facet normal -0.146739 0.989175 0
    outer loop
      vertex 20.3656 13.1345 8.5
      vertex 19.6861 13.0337 10.5
      vertex 20.3656 13.1345 10.5
    endloop
  endfacet
  facet normal -0.146739 0.989175 0
    outer loop
      vertex 19.6861 13.0337 10.5
      vertex 20.3656 13.1345 8.5
      vertex 19.6861 13.0337 8.5
    endloop
  endfacet
  facet normal 0.0490591 -0.998796 0
    outer loop
      vertex 18.3139 26.9663 8.5
      vertex 19 27 10.5
      vertex 18.3139 26.9663 10.5
    endloop
  endfacet
  facet normal 0.0490591 -0.998796 0
    outer loop
      vertex 19 27 10.5
      vertex 18.3139 26.9663 8.5
      vertex 19 27 8.5
    endloop
  endfacet
  facet normal 0.146739 -0.989175 0
    outer loop
      vertex 17.6344 26.8655 8.5
      vertex 18.3139 26.9663 10.5
      vertex 17.6344 26.8655 10.5
    endloop
  endfacet
  facet normal 0.146739 -0.989175 0
    outer loop
      vertex 18.3139 26.9663 10.5
      vertex 17.6344 26.8655 8.5
      vertex 18.3139 26.9663 8.5
    endloop
  endfacet
  facet normal 0.514046 -0.857763 0
    outer loop
      vertex 15.111 25.8203 8.5
      vertex 15.7002 26.1734 10.5
      vertex 15.111 25.8203 10.5
    endloop
  endfacet
  facet normal 0.514046 -0.857763 0
    outer loop
      vertex 15.7002 26.1734 10.5
      vertex 15.111 25.8203 8.5
      vertex 15.7002 26.1734 8.5
    endloop
  endfacet
  facet normal 0.671687 -0.740835 0
    outer loop
      vertex 14.0503 24.9497 8.5
      vertex 14.5592 25.4111 10.5
      vertex 14.0503 24.9497 10.5
    endloop
  endfacet
  facet normal 0.671687 -0.740835 0
    outer loop
      vertex 14.5592 25.4111 10.5
      vertex 14.0503 24.9497 8.5
      vertex 14.5592 25.4111 8.5
    endloop
  endfacet
  facet normal 0.595659 -0.803237 0
    outer loop
      vertex 14.5592 25.4111 8.5
      vertex 15.111 25.8203 10.5
      vertex 14.5592 25.4111 10.5
    endloop
  endfacet
  facet normal 0.595659 -0.803237 0
    outer loop
      vertex 15.111 25.8203 10.5
      vertex 14.5592 25.4111 8.5
      vertex 15.111 25.8203 8.5
    endloop
  endfacet
  facet normal 0.803237 -0.595659 0
    outer loop
      vertex 13.1797 23.889 10.5
      vertex 13.5889 24.4408 8.5
      vertex 13.5889 24.4408 10.5
    endloop
  endfacet
  facet normal 0.803237 -0.595659 0
    outer loop
      vertex 13.5889 24.4408 8.5
      vertex 13.1797 23.889 10.5
      vertex 13.1797 23.889 8.5
    endloop
  endfacet
  facet normal 0.857763 -0.514046 0
    outer loop
      vertex 12.8266 23.2998 10.5
      vertex 13.1797 23.889 8.5
      vertex 13.1797 23.889 10.5
    endloop
  endfacet
  facet normal 0.857763 -0.514046 0
    outer loop
      vertex 13.1797 23.889 8.5
      vertex 12.8266 23.2998 10.5
      vertex 12.8266 23.2998 8.5
    endloop
  endfacet
  facet normal -0.146739 -0.989175 0
    outer loop
      vertex 19.6861 26.9663 8.5
      vertex 20.3656 26.8655 10.5
      vertex 19.6861 26.9663 10.5
    endloop
  endfacet
  facet normal -0.146739 -0.989175 -0
    outer loop
      vertex 20.3656 26.8655 10.5
      vertex 19.6861 26.9663 8.5
      vertex 20.3656 26.8655 8.5
    endloop
  endfacet
  facet normal -0.671687 -0.740835 0
    outer loop
      vertex 23.4408 25.4111 8.5
      vertex 23.9497 24.9497 10.5
      vertex 23.4408 25.4111 10.5
    endloop
  endfacet
  facet normal -0.671687 -0.740835 -0
    outer loop
      vertex 23.9497 24.9497 10.5
      vertex 23.4408 25.4111 8.5
      vertex 23.9497 24.9497 8.5
    endloop
  endfacet
  facet normal -0.427661 -0.903939 0
    outer loop
      vertex 21.6788 26.4672 8.5
      vertex 22.2998 26.1734 10.5
      vertex 21.6788 26.4672 10.5
    endloop
  endfacet
  facet normal -0.427661 -0.903939 -0
    outer loop
      vertex 22.2998 26.1734 10.5
      vertex 21.6788 26.4672 8.5
      vertex 22.2998 26.1734 8.5
    endloop
  endfacet
  facet normal -0.0490591 -0.998796 0
    outer loop
      vertex 19 27 8.5
      vertex 19.6861 26.9663 10.5
      vertex 19 27 10.5
    endloop
  endfacet
  facet normal -0.0490591 -0.998796 -0
    outer loop
      vertex 19.6861 26.9663 10.5
      vertex 19 27 8.5
      vertex 19.6861 26.9663 8.5
    endloop
  endfacet
  facet normal -0.595659 -0.803237 0
    outer loop
      vertex 22.889 25.8203 8.5
      vertex 23.4408 25.4111 10.5
      vertex 22.889 25.8203 10.5
    endloop
  endfacet
  facet normal -0.595659 -0.803237 -0
    outer loop
      vertex 23.4408 25.4111 10.5
      vertex 22.889 25.8203 8.5
      vertex 23.4408 25.4111 8.5
    endloop
  endfacet
  facet normal -0.740835 -0.671687 0
    outer loop
      vertex 24.4111 24.4408 8.5
      vertex 23.9497 24.9497 10.5
      vertex 23.9497 24.9497 8.5
    endloop
  endfacet
  facet normal -0.740835 -0.671687 0
    outer loop
      vertex 23.9497 24.9497 10.5
      vertex 24.4111 24.4408 8.5
      vertex 24.4111 24.4408 10.5
    endloop
  endfacet
  facet normal -0.903939 -0.427661 0
    outer loop
      vertex 25.4672 22.6788 8.5
      vertex 25.1734 23.2998 10.5
      vertex 25.1734 23.2998 8.5
    endloop
  endfacet
  facet normal -0.903939 -0.427661 0
    outer loop
      vertex 25.1734 23.2998 10.5
      vertex 25.4672 22.6788 8.5
      vertex 25.4672 22.6788 10.5
    endloop
  endfacet
  facet normal -0.97004 -0.242947 0
    outer loop
      vertex 25.8655 21.3656 8.5
      vertex 25.6986 22.032 10.5
      vertex 25.6986 22.032 8.5
    endloop
  endfacet
  facet normal -0.97004 -0.242947 0
    outer loop
      vertex 25.6986 22.032 10.5
      vertex 25.8655 21.3656 8.5
      vertex 25.8655 21.3656 10.5
    endloop
  endfacet
  facet normal -0.998796 -0.0490591 0
    outer loop
      vertex 26 20 8.5
      vertex 25.9663 20.6861 10.5
      vertex 25.9663 20.6861 8.5
    endloop
  endfacet
  facet normal -0.998796 -0.0490591 0
    outer loop
      vertex 25.9663 20.6861 10.5
      vertex 26 20 8.5
      vertex 26 20 10.5
    endloop
  endfacet
  facet normal -0.941557 -0.336853 0
    outer loop
      vertex 25.6986 22.032 8.5
      vertex 25.4672 22.6788 10.5
      vertex 25.4672 22.6788 8.5
    endloop
  endfacet
  facet normal -0.941557 -0.336853 0
    outer loop
      vertex 25.4672 22.6788 10.5
      vertex 25.6986 22.032 8.5
      vertex 25.6986 22.032 10.5
    endloop
  endfacet
  facet normal 0.989175 0.146739 0
    outer loop
      vertex 12.1345 18.6344 10.5
      vertex 12.0337 19.3139 8.5
      vertex 12.0337 19.3139 10.5
    endloop
  endfacet
  facet normal 0.989175 0.146739 0
    outer loop
      vertex 12.0337 19.3139 8.5
      vertex 12.1345 18.6344 10.5
      vertex 12.1345 18.6344 8.5
    endloop
  endfacet
  facet normal 0.146739 0.989175 -0
    outer loop
      vertex 18.3139 13.0337 8.5
      vertex 17.6344 13.1345 10.5
      vertex 18.3139 13.0337 10.5
    endloop
  endfacet
  facet normal 0.146739 0.989175 0
    outer loop
      vertex 17.6344 13.1345 10.5
      vertex 18.3139 13.0337 8.5
      vertex 17.6344 13.1345 8.5
    endloop
  endfacet
  facet normal 0.336853 0.941557 -0
    outer loop
      vertex 16.968 13.3014 8.5
      vertex 16.3212 13.5328 10.5
      vertex 16.968 13.3014 10.5
    endloop
  endfacet
  facet normal 0.336853 0.941557 0
    outer loop
      vertex 16.3212 13.5328 10.5
      vertex 16.968 13.3014 8.5
      vertex 16.3212 13.5328 8.5
    endloop
  endfacet
  facet normal -0.740835 0.671687 0
    outer loop
      vertex 23.9497 15.0503 8.5
      vertex 24.4111 15.5592 10.5
      vertex 24.4111 15.5592 8.5
    endloop
  endfacet
  facet normal -0.740835 0.671687 0
    outer loop
      vertex 24.4111 15.5592 10.5
      vertex 23.9497 15.0503 8.5
      vertex 23.9497 15.0503 10.5
    endloop
  endfacet
  facet normal -0.989175 0.146739 0
    outer loop
      vertex 25.8655 18.6344 8.5
      vertex 25.9663 19.3139 10.5
      vertex 25.9663 19.3139 8.5
    endloop
  endfacet
  facet normal -0.989175 0.146739 0
    outer loop
      vertex 25.9663 19.3139 10.5
      vertex 25.8655 18.6344 8.5
      vertex 25.8655 18.6344 10.5
    endloop
  endfacet
  facet normal -0.941557 0.336853 0
    outer loop
      vertex 25.4672 17.3212 8.5
      vertex 25.6986 17.968 10.5
      vertex 25.6986 17.968 8.5
    endloop
  endfacet
  facet normal -0.941557 0.336853 0
    outer loop
      vertex 25.6986 17.968 10.5
      vertex 25.4672 17.3212 8.5
      vertex 25.4672 17.3212 10.5
    endloop
  endfacet
  facet normal -0.595659 0.803237 0
    outer loop
      vertex 23.4408 14.5889 8.5
      vertex 22.889 14.1797 10.5
      vertex 23.4408 14.5889 10.5
    endloop
  endfacet
  facet normal -0.595659 0.803237 0
    outer loop
      vertex 22.889 14.1797 10.5
      vertex 23.4408 14.5889 8.5
      vertex 22.889 14.1797 8.5
    endloop
  endfacet
  facet normal -0.427661 0.903939 0
    outer loop
      vertex 22.2998 13.8266 8.5
      vertex 21.6788 13.5328 10.5
      vertex 22.2998 13.8266 10.5
    endloop
  endfacet
  facet normal -0.427661 0.903939 0
    outer loop
      vertex 21.6788 13.5328 10.5
      vertex 22.2998 13.8266 8.5
      vertex 21.6788 13.5328 8.5
    endloop
  endfacet
  facet normal -0.242947 0.97004 0
    outer loop
      vertex 21.032 13.3014 8.5
      vertex 20.3656 13.1345 10.5
      vertex 21.032 13.3014 10.5
    endloop
  endfacet
  facet normal -0.242947 0.97004 0
    outer loop
      vertex 20.3656 13.1345 10.5
      vertex 21.032 13.3014 8.5
      vertex 20.3656 13.1345 8.5
    endloop
  endfacet
  facet normal 0.427661 -0.903939 0
    outer loop
      vertex 15.7002 26.1734 8.5
      vertex 16.3212 26.4672 10.5
      vertex 15.7002 26.1734 10.5
    endloop
  endfacet
  facet normal 0.427661 -0.903939 0
    outer loop
      vertex 16.3212 26.4672 10.5
      vertex 15.7002 26.1734 8.5
      vertex 16.3212 26.4672 8.5
    endloop
  endfacet
  facet normal 0.941557 -0.336853 0
    outer loop
      vertex 12.3014 22.032 10.5
      vertex 12.5328 22.6788 8.5
      vertex 12.5328 22.6788 10.5
    endloop
  endfacet
  facet normal 0.941557 -0.336853 0
    outer loop
      vertex 12.5328 22.6788 8.5
      vertex 12.3014 22.032 10.5
      vertex 12.3014 22.032 8.5
    endloop
  endfacet
  facet normal 0.989175 -0.146739 0
    outer loop
      vertex 12.0337 20.6861 10.5
      vertex 12.1345 21.3656 8.5
      vertex 12.1345 21.3656 10.5
    endloop
  endfacet
  facet normal 0.989175 -0.146739 0
    outer loop
      vertex 12.1345 21.3656 8.5
      vertex 12.0337 20.6861 10.5
      vertex 12.0337 20.6861 8.5
    endloop
  endfacet
  facet normal 0.998796 -0.0490591 0
    outer loop
      vertex 12 20 10.5
      vertex 12.0337 20.6861 8.5
      vertex 12.0337 20.6861 10.5
    endloop
  endfacet
  facet normal 0.998796 -0.0490591 0
    outer loop
      vertex 12.0337 20.6861 8.5
      vertex 12 20 10.5
      vertex 12 20 8.5
    endloop
  endfacet
  facet normal -0.242947 -0.97004 0
    outer loop
      vertex 20.3656 26.8655 8.5
      vertex 21.032 26.6986 10.5
      vertex 20.3656 26.8655 10.5
    endloop
  endfacet
  facet normal -0.242947 -0.97004 -0
    outer loop
      vertex 21.032 26.6986 10.5
      vertex 20.3656 26.8655 8.5
      vertex 21.032 26.6986 8.5
    endloop
  endfacet
  facet normal -0.857763 -0.514046 0
    outer loop
      vertex 25.1734 23.2998 8.5
      vertex 24.8203 23.889 10.5
      vertex 24.8203 23.889 8.5
    endloop
  endfacet
  facet normal -0.857763 -0.514046 0
    outer loop
      vertex 24.8203 23.889 10.5
      vertex 25.1734 23.2998 8.5
      vertex 25.1734 23.2998 10.5
    endloop
  endfacet
  facet normal -0.989175 -0.146739 0
    outer loop
      vertex 25.9663 20.6861 8.5
      vertex 25.8655 21.3656 10.5
      vertex 25.8655 21.3656 8.5
    endloop
  endfacet
  facet normal -0.989175 -0.146739 0
    outer loop
      vertex 25.8655 21.3656 10.5
      vertex 25.9663 20.6861 8.5
      vertex 25.9663 20.6861 10.5
    endloop
  endfacet
  facet normal 0.336853 -0.941557 0
    outer loop
      vertex 16.3212 26.4672 8.5
      vertex 16.968 26.6986 10.5
      vertex 16.3212 26.4672 10.5
    endloop
  endfacet
  facet normal 0.336853 -0.941557 0
    outer loop
      vertex 16.968 26.6986 10.5
      vertex 16.3212 26.4672 8.5
      vertex 16.968 26.6986 8.5
    endloop
  endfacet
  facet normal 0 1 -0
    outer loop
      vertex 30.5 7 8.5
      vertex 7.5 7 10.5
      vertex 30.5 7 10.5
    endloop
  endfacet
  facet normal 0 1 0
    outer loop
      vertex 7.5 7 10.5
      vertex 30.5 7 8.5
      vertex 7.5 7 8.5
    endloop
  endfacet
  facet normal -1 0 0
    outer loop
      vertex 30.5 7 8.5
      vertex 30.5 11 10.5
      vertex 30.5 11 8.5
    endloop
  endfacet
  facet normal -1 -0 0
    outer loop
      vertex 30.5 11 10.5
      vertex 30.5 7 8.5
      vertex 30.5 7 10.5
    endloop
  endfacet
  facet normal 0 -1 0
    outer loop
      vertex 7.5 11 8.5
      vertex 30.5 11 10.5
      vertex 7.5 11 10.5
    endloop
  endfacet
  facet normal 0 -1 -0
    outer loop
      vertex 30.5 11 10.5
      vertex 7.5 11 8.5
      vertex 30.5 11 8.5
    endloop
  endfacet
  facet normal 1 -0 0
    outer loop
      vertex 7.5 7 10.5
      vertex 7.5 11 8.5
      vertex 7.5 11 10.5
    endloop
  endfacet
  facet normal 1 0 0
    outer loop
      vertex 7.5 11 8.5
      vertex 7.5 7 10.5
      vertex 7.5 7 8.5
    endloop
  endfacet
  facet normal 0 1 -0
    outer loop
      vertex 30.5 29 8.5
      vertex 7.5 29 10.5
      vertex 30.5 29 10.5
    endloop
  endfacet
  facet normal 0 1 0
    outer loop
      vertex 7.5 29 10.5
      vertex 30.5 29 8.5
      vertex 7.5 29 8.5
    endloop
  endfacet
  facet normal 0 -1 0
    outer loop
      vertex 7.5 33 8.5
      vertex 30.5 33 10.5
      vertex 7.5 33 10.5
    endloop
  endfacet
  facet normal 0 -1 -0
    outer loop
      vertex 30.5 33 10.5
      vertex 7.5 33 8.5
      vertex 30.5 33 8.5
    endloop
  endfacet
  facet normal 1 -0 0
    outer loop
      vertex 7.5 29 10.5
      vertex 7.5 33 8.5
      vertex 7.5 33 10.5
    endloop
  endfacet
  facet normal 1 0 0
    outer loop
      vertex 7.5 33 8.5
      vertex 7.5 29 10.5
      vertex 7.5 29 8.5
    endloop
  endfacet
  facet normal -1 0 0
    outer loop
      vertex 30.5 29 8.5
      vertex 30.5 33 10.5
      vertex 30.5 33 8.5
    endloop
  endfacet
  facet normal -1 -0 0
    outer loop
      vertex 30.5 33 10.5
      vertex 30.5 29 8.5
      vertex 30.5 29 10.5
    endloop
  endfacet
  facet normal 1 -0 0
    outer loop
      vertex 37 14 10.5
      vertex 37 26 9.5
      vertex 37 26 10.5
    endloop
  endfacet
  facet normal 1 0 0
    outer loop
      vertex 37 26 9.5
      vertex 37 14 10.5
      vertex 37 14 9.5
    endloop
  endfacet
  facet normal 0 1 0
    outer loop
      vertex 39.25 14 19
      vertex 37.25 14 10.5
      vertex 37.25 14 19
    endloop
  endfacet
  facet normal 0 1 -0
    outer loop
      vertex 39.25 14 9.5
      vertex 37.25 14 10.5
      vertex 39.25 14 19
    endloop
  endfacet
  facet normal 0 1 0
    outer loop
      vertex 37 14 9.5
      vertex 37.25 14 10.5
      vertex 39.25 14 9.5
    endloop
  endfacet
  facet normal 0 1 0
    outer loop
      vertex 37.25 14 10.5
      vertex 37 14 9.5
      vertex 37 14 10.5
    endloop
  endfacet
  facet normal -0 0 1
    outer loop
      vertex 37 26 9.5
      vertex 39.25 14 9.5
      vertex 39.25 26 9.5
    endloop
  endfacet
  facet normal 0 0 1
    outer loop
      vertex 39.25 14 9.5
      vertex 37 26 9.5
      vertex 37 14 9.5
    endloop
  endfacet
  facet normal 0 -1 0
    outer loop
      vertex 37 26 10.5
      vertex 37 26 9.5
      vertex 37.25 26 10.5
    endloop
  endfacet
  facet normal 0 -1 0
    outer loop
      vertex 37.25 26 10.5
      vertex 39.25 26 19
      vertex 37.25 26 19
    endloop
  endfacet
  facet normal 0 -1 0
    outer loop
      vertex 37.25 26 10.5
      vertex 39.25 26 9.5
      vertex 39.25 26 19
    endloop
  endfacet
  facet normal 0 -1 0
    outer loop
      vertex 39.25 26 9.5
      vertex 37.25 26 10.5
      vertex 37 26 9.5
    endloop
  endfacet
  facet normal 0 0 -1
    outer loop
      vertex 30.25 33.25 17.5
      vertex 37.25 35.25 17.5
      vertex 37.25 33.25 17.5
    endloop
  endfacet
  facet normal -0 0 -1
    outer loop
      vertex 37.25 35.25 17.5
      vertex 30.25 33.25 17.5
      vertex 30.25 35.25 17.5
    endloop
  endfacet
  facet normal 1 -0 0
    outer loop
      vertex 30.25 33.25 17.5
      vertex 30.25 35.25 13.5
      vertex 30.25 35.25 17.5
    endloop
  endfacet
  facet normal 1 0 0
    outer loop
      vertex 30.25 35.25 13.5
      vertex 30.25 33.25 17.5
      vertex 30.25 33.25 13.5
    endloop
  endfacet
  facet normal -0 0 1
    outer loop
      vertex 30.25 35.25 13.5
      vertex 37.25 33.25 13.5
      vertex 37.25 35.25 13.5
    endloop
  endfacet
  facet normal 0 0 1
    outer loop
      vertex 37.25 33.25 13.5
      vertex 30.25 35.25 13.5
      vertex 30.25 33.25 13.5
    endloop
  endfacet
  facet normal 1 -0 0
    outer loop
      vertex 6.5 6.75 14.5
      vertex 6.5 33.25 10.5
      vertex 6.5 33.25 14.5
    endloop
  endfacet
  facet normal 1 0 0
    outer loop
      vertex 6.5 33.25 10.5
      vertex 6.5 6.75 14.5
      vertex 6.5 6.75 10.5
    endloop
  endfacet
  facet normal -0 0 1
    outer loop
      vertex 2.75 33.25 14.5
      vertex 6.5 6.75 14.5
      vertex 6.5 33.25 14.5
    endloop
  endfacet
  facet normal 0 0 1
    outer loop
      vertex 6.5 6.75 14.5
      vertex 2.75 33.25 14.5
      vertex 2.75 6.75 14.5
    endloop
  endfacet
  facet normal 1 -0 0
    outer loop
      vertex 36 13.375 12.5
      vertex 36 26.625 10.5
      vertex 36 26.625 12.5
    endloop
  endfacet
  facet normal 1 0 0
    outer loop
      vertex 36 26.625 10.5
      vertex 36 13.375 12.5
      vertex 36 13.375 10.5
    endloop
  endfacet
  facet normal -0 0 1
    outer loop
      vertex 32 26.625 12.5
      vertex 36 13.375 12.5
      vertex 36 26.625 12.5
    endloop
  endfacet
  facet normal 0 0 1
    outer loop
      vertex 36 13.375 12.5
      vertex 32 26.625 12.5
      vertex 32 13.375 12.5
    endloop
  endfacet
  facet normal -1 0 0
    outer loop
      vertex 32 13.375 10.5
      vertex 32 26.625 12.5
      vertex 32 26.625 10.5
    endloop
  endfacet
  facet normal -1 -0 0
    outer loop
      vertex 32 26.625 12.5
      vertex 32 13.375 10.5
      vertex 32 13.375 12.5
    endloop
  endfacet
  facet normal 0 -1 0
    outer loop
      vertex 32 13.375 10.5
      vertex 36 13.375 12.5
      vertex 32 13.375 12.5
    endloop
  endfacet
  facet normal 0 -1 -0
    outer loop
      vertex 36 13.375 12.5
      vertex 32 13.375 10.5
      vertex 36 13.375 10.5
    endloop
  endfacet
  facet normal 0 1 -0
    outer loop
      vertex 36 26.625 10.5
      vertex 32 26.625 12.5
      vertex 36 26.625 12.5
    endloop
  endfacet
  facet normal 0 1 0
    outer loop
      vertex 32 26.625 12.5
      vertex 36 26.625 10.5
      vertex 32 26.625 10.5
    endloop
  endfacet
endsolid OpenSCAD_Model
